<mxfile host="app.diagrams.net" modified="2021-08-19T08:29:24.484Z" agent="5.0 (Macintosh; Intel Mac OS X 10_15_7) AppleWebKit/537.36 (KHTML, like Gecko) Chrome/92.0.4515.131 Safari/537.36" etag="ttnHUJf6CB4Jd5XSoHrm" version="14.9.7" type="github">
  <diagram id="5c6AxjzpulbUdd4eHJt3" name="Page-1">
    <mxGraphModel dx="1518" dy="827" grid="1" gridSize="10" guides="1" tooltips="1" connect="1" arrows="1" fold="1" page="1" pageScale="1" pageWidth="827" pageHeight="1169" math="0" shadow="0">
      <root>
        <mxCell id="0" />
        <mxCell id="1" parent="0" />
        <mxCell id="gPtl4obDzRPSqgwpyA3q-1" value="" style="shape=image;verticalLabelPosition=bottom;labelBackgroundColor=#ffffff;verticalAlign=top;aspect=fixed;imageAspect=0;image=data:image/png,iVBORw0KGgoAAAANSUhEUgAAA3wAAAF2CAYAAAA1EJptAAAgAElEQVR4Aey95Zccx9Lue/6sc9e6X+59z3q3N9h726+3mdmWbclsyQKLmZmZccTMYDEPMzMzKM76xSi0W+2RNDWa7unuiVqrVnVXJUQ+WZkZT0Zk1v8SPxwBR8ARcAQcAUfAEXAEHAFHwBFwBBISgf+VkKXyQjkCjoAj4Ag4Ao6AI+AIOAKOgCPgCIgTPn8JHAFHwBFwBBwBR8ARcAQcAUfAEUhQBJzwJWjFerEcAUfAEXAEHAFHwBFwBBwBR8ARcMLn74Aj4Ag4Ao6AI+AIOAKOgCPgCDgCCYqAE74ErVgvliPgCDgCjoAj4Ag4Ao6AI+AIOAJO+PwdcAQcAUfAEXAEHAFHwBFwBBwBRyBBEXDCl6AV68VyBBwBR8ARcAQcAUfAEXAEHAFHwAmfvwOOgCPgCDgCjoAj4Ag4Ao6AI+AIJCgCTvgStGK9WI6AI+AIOAKOgCPgCDgCjoAj4Ag44fN3wBFwBBwBR8ARcAQcAUfAEXAEHIEERcAJX4JWrBfLEXAEHAFHwBFwBBwBR8ARcAQcASd8/g44Ao6AI+AIOAKOgCPgCDgCjoAjkKAIOOFL0Ir1YjkCjoAj4Ag4Ao6AI+AIOAKOgCPghM/fAUfAEXAEHAFHwBFwBBwBR8ARcAQSFAEnfAlasV4sR8ARcAQcAUfAEXAEHAFHwBFwBJzw+TvgCDgCjoAj4Ag4Ao6AI+AIOAKOQIIi4IQvQSvWi+UIOAKOgCPgCDgCjoAj4Ag4Ao6AEz5/BxwBR8ARcAQcAUfAEXAEHAFHwBFIUASc8CVoxXqxHAFHwBFwBBwBR8ARcAQcAUfAEXDC5++AI+AIOAKOgCPgCDgCjoAj4Ag4AgmKgBO+BK1YL5Yj4Ag4Ao6AI+AIOAKOgCPgCDgCTvj8HXAEHAFHwBFwBBwBR8ARcAQcAUcgQRFwwpegFevFcgQcAUfAEXAEHAFHwBFwBBwBRyDihO/Bgwfip2Mw0O+AN3VHwBFwBBwBR8AReH4EBno89/xdp+Qd8CMYAhEnfO3t7eKnYzCQ70BHR4dOOgRrGh7aEXAEHAFHwBFwBEIRQNFmTB3IMd3zdp2Sd8CPYAhEnPDt3LlTdu3aJbt37/bTMYj6O2DvXldXV7CW4aEdAUfAEXAEHAFH4DEEGEvR52xsdd3OddtovwO8e3ALP4IhEHHCt3HjRtmyZYt3Dk72BoTs8e5xdnZ2BmsZHtoRcAQcAUfAEXAEHkOAsdTGVSd9TvYGguzx/sEt/AiGQMQJ34YNG2T//v3S1tbmLgDu3hrVd4B3jndv8+bNTviC9Qse2hFwBBwBR8AR+BMCED7GVNfr3K1yIFxrTa+DW/gRDIGoEL4DBw4IbgC+0NYX2kbzHeCd491zwhesU/DQjoAj4Ag4Ao5ATwgY4XO9zvW5aOpzlpfpdU74emqdT78XNcJHZfnhCEQTAd45J3zRRNzzcgQcAUfAEUhkBEIJn+t1iVzTsVk20+uc8AWvHyd8wTHzGHGCgHUMbuGLkwpzMR0BR8ARcARiGgEnfDFdPQkvnOl1TviCV7UTvuCYeYw4QcA6Bid8cVJhLqYj4Ag4Ao5ATCPghC+mqyfhhTO9zglf8Kp2whccM48RJwhYx+CEL04qzMV0BBwBR8ARiGkEnPDFdPUkvHCm1znhC17VTviCY+Yx4gQB6xic8MVJhbmYjoAj4Ag4AjGNgBO+mK6ehBfO9DonfMGr2glfcMw8RpwgYB2DE744qTAX0xFwBBwBRyCmEXDCF9PVk/DCmV7nhC94VTvhC46Zx4gTBKxjcMIXJxXmYjoCjoAj4AjENAJO+GK6ehJeONPrnPAFr2onfMEx8xhxgoB1DE744qTCXExHwBFwBByBmEbACV9MV0/CC2d6nRO+4FXthC84Zh4jThCwjsEJX5xUmIvpCDgCjoAjENMIOOGL6epJeOFMr3PCF7yqnfAFx8xjxAkC1jE44YuTCnMxHQFHwBFwBGIaASd8MV09CS+c6XVO+IJXtRO+4Jh5jDhBwDoGJ3xxUmEupiPgCDgCjkBMI+CEL6arJ+GFM73OCV/wqnbCFxwzjxEnCFjH4IQvTirMxXQEHAFHwBGIaQSc8MV09SS8cKbXOeELXtVO+IJj5jHiBAHrGJzwxUmFuZiOgCPgCDgCMY2AE76Yrp6EF870Oid8wavaCV9wzDxGnCBgHYMTvjipMBfTEXAEHAFHIKYRcMIX09WT8MKZXueEL3hVO+ELjpnHiBMErGNwwhcnFeZiOgKOgCPgCMQ0Ak74Yrp6El440+uc8AWvaid8wTHzGHGCgHUMTvjipMJcTEfAEXAEHIGYRsAJX0xXT8ILZ3qdE77gVe2ELzhmHiNOELCOwQlfnFSYi+kIOAKOgCMQ0wg44Yvp6kl44Uyvc8IXvKqd8AXHzGPECQLWMTjhi5MKczEdAUfAEXAEYhoBJ3wxXT0JL5zpdU74gle1E77gmHmMOEHAOgYnfHFSYS6mI+AIOAKOQEwj4IQvutWDHgPmnPzmHMyH6XVO+IK/BU74gmPmMeIEAesYnPDFSYW5mI6AI+AIOAIxjYATvuhWT3t7u6SmpsqRI0ekvLzcCd+DB3LgwAFxwhf8PXTC9wzMurq6hAbX0dEh/LbZFa50fG1tbdLa2qqnzcAQvqWlRU+eW1yyIkx4eqRLGIvP79B0+W0neVnaXC19k8uKw3/SMdkIZ+lbmES/ggEdgxO+RK9pL58j4Ag4Ao5ANBBAj2BMZWwN1zsinX9ubq6sWbNGyU9tba3qZOhP6DlXr16VtWvXyvz58/WanZ0t9fX1+nvOnDkyb948WbFihdy9e1d1I2TNz8+XdevWyZ49e6SpqUnTQ1e6ffu27Ny5U8rKyuTevXsaj3QXLlwoy5Ytk6ysLDl58qQsWLBA5s6dqyfp85xn4IJceXl5sm3bNklLS1P9i3sQN8LW1dXpvcrKStm/f7+cPXtWyxGOIXoeWP/888+SnJys6YaHsf8FBQWyceNGTR/ZFi1a9EgeCxPvV9PrnPAFr0knfM/AjAa/fv16beRFRUXa2HjhIFN0HCtXrpTRo0fL+PHj5dq1a3p/1apVMnLkSD0nTZokJ06ckMbGRs2JToiOg5e1ublZOwY6mMuXL8vq1auluLhYMjMzNcyoUaOEk7TpDHbv3q15/fbbb4/S//333+X+/fuPdQLI19DQoHGmTZumaYwZM0ZSUlIeyW8dEldOO+y/Xblvv0PDWfhYviKvE75YriGXzRFwBBwBRyCeEBgIwsdYzkQ5xOi9996T4cOHqz6DLJznzp2TH3/8UbZu3aq/t2zZIrdu3VLC9vHHH8uMGTPkzJkzSlTHjh0r169fV8hv3Lghn376qbz55pvyxx9/qP4G8UtKSpJff/1V0tPT5dChQ/LJJ5/ovYsXLyqxRC/MyMiQ8+fPCzrWN998o/rZpUuXpKKiQvUs5IKgkQ6EEj0Pvezbb7+VF154QW7evKn30N/Q8ygb5A5SaCflNnl++OGHR2SV5zzjDD0gqkOHDpUlS5YIslIm5EEWwlq6ofFD7/X2t+UdGt7uhcoTid/kg17nhC84uk74noIZLxZE7KeffhI6jVOnTj2y5NER0HCZvWFG58KFCzorBImjM5owYYJ2CDQ6COHevXu1wdEJffHFF/Lvf/9bCRnEkTg09hEjRmgcOqEvv/xS45A2s1o1NTXacCGDzDCRB3lCICGTyGoHDZwwEydOlCtXrqh8kE46RRq+WRDpSMzyR8PlGf/NKkgHy33uISP/reOwvGL5ah2DW/hiuZZcNkfAEXAEHIF4QQAdINoWPvQQ9BomxbFcQZDQqdBh0Gc2bdokn332mZSWlippwrLHM4gZhA49DR0mJydHfvnlF7X6gbcRvu+//16GDRumFkFIWSjhO3z4sOps6F7kRfntJE2wYOIdnRBdCVnRPbgygQ/ZxAqIOyaumUOGDFF9cvv27UoAjx8/rvocxA95IauQOyb2kQ9LIPJ89dVXqtehTzKBD5kjv1DdD8JHWY4ePfrIk8x0zNOnT6ucX3/9tcqEbkk50AvBE4sm6RKX8mAV5T76L3lhWSXuzJkztS7AF/2WsOjCRmpD5YnEO216nRO+4Og64XsCZrxUNHyse7Nnz5apU6eqWR/iRQOikUACMfdDkMxNkwbEjM6sWbP0HuZ6GvuUKVO0M7EOhk6HjojGHN7BYCmk84LQ0aBJ0xoR/5nFwuoH2eNZ6IFsNFgaqVkc6Xi4T1w6KFwfsEC+9dZbeoWEUgbK8sEHH2hnyGwZsjJDRaMnLBjY7FVonrH62zoGJ3yxWkMulyPgCDgCjkA8IYDOEW3Ch/5y584d1UGwzuFFhV6GPsIzyAw6Cu6ZTJBzDzmN8EGu0HEKCwtV5zGyYPoYE+6QLOLjKhpO+JiAN4JkhI46e5o+hv4BKcLFEh0KiyDkDovg0qVLleQhH15i48aNU9mQC68wvLEgUO+8844SSX5TPnDHbZP46JDm1mrvjxG+Y8eOaflN96Oc6Ku4kyLH9OnTlbjhtUbZ//WvfynhA0+slG+88YaGQTdEdgwU+/btU8IMuVu+fLkaONBDuQ/m1AEYm65qMvX31fQ6q8P+Tj+R03PC94TapbPgJcYnm8aDdQ+rGvd4xkwSMy7MttBAsLLRydDAwgkfMyXM8mCutw6GhodFD9M7pJAGbS4EEDXIIMSNWaHq6upHDelZHUxVVZXKTH62wJcGwonc+JJD5nBTQB4ILeQQX3NcDGj4+LlTFjq4yZMnq6sC6dIRURaexcNhHYMTvnioLZfREXAEHAFHINYRQI+INuFjUhzLF9YkLG3oRljKIC/IA9GAcEBGIGcQNibn0dMgOqztg9zs2rVLrVShLp1MruOaif4D0YGUsXzG9DEsfBAvSM/bb7+tk/HmVfU0fYx6RAfBOICORR6s3duxY4d6d73++utKmphIh0BhfUTHxJKGnok18OWXX1b3RfRDXDXRH9HbIL8fffSRenBRfjsgfOilr7zyisqK+ytWRvRM9E0ME2CFeyuWQDzAsJQSHvLJM+5hyaPc4A4hRR9FnwRTjBmQVvDCCok3GbJjTED/jfRhep0TvuBIO+F7AmY0ZBoojYSOhPPzzz/XRkCj4DmECGJF47DFujQoZl7wE8fETzwaBR0UBw3WOhjWAGJRwx+Zjoh4xDELHw2aDozFuljzeNGf1sHQ2GiUzHxxQtLssLiY7b/77judJeIZMziUizWCdII0fCyAdCKQXMqGfJSVhv/+++9rp2HpxvLVOgYnfLFcSy6bI+AIOAKOQLwgEG3CxzgOGcEKhk7EejlI3WuvvaYkEALEJDS6F/oP7puQIya1sehB+CByECF0MVs7R7qmj+GaiF4H2YJ0oeugd6GPmUsnk+WQGnQwMDCd6mkeV9QpxI18IV2QLDy3IE6UASLK8h82gMGqx3MseTyjnOh/GAcgfOiHyED+XFlXCJkMnYA3Cx9lN1nBB48udFXkBifKTfkgfpBjcOU+J/ofeaOzYqEEE3RWrH94pJnHG/ol8UkbvCkDsoFLJA/S9zV8fUPYCd8TcMOqxg5HrLfjhYb48dtcM2k4ECwaEwQNqxkzHVjrmM2h0RIHCxkNnM6EwzoYrILco7NgJonOwDoYI3x0QjRm8rFG9DTCRxjkXrx4sa7fY0bLDp4hKx0M+SAnB50MM2XMapEvs1jM1pAvpnoIII0ZDOi0sGjSkcTDYR2DE754qC2X0RFwBBwBRyDWEYg24UP/YXLcNi3hP7oTugx6CSQPSx4kimfoL7ghst6PiWqsU7h0ojuh10BUsAziDskkNxPe6GOQHUgNk/WQRPIzwgcBI110Cjupp6fpY1aPkFXWvaE/outBQskLax95oI8hD/exYGK5sh088byiXJAy9DDIGNZFjBEQWNb9UR92GOFDnzM5yQuvLSb60fuIT3qUkyU76HmUF2w4e0v40DWRjSvpU5ZwF1OTqz+vpte5hS84qk74esCMToOOAsKGOydECZLDbAqNFpJUUlKiLgJ0PPxm9gRTNx0PDRgfaRoWz+lgIHr4XkOqQjsYGiAkEksfRDHUwkd+NktDQ+RFf1oHw3PCmfspM0M0QGSA/OEmwD1mjejoKBfloyOg4TPzxawZHRsYsFDXrJPIifzgEtrB9ABfzNyyjsEJX8xUiQviCDgCjoAjEMcIRJPwMYajv7D0BIICIeNABvQVyBw6FToPBAD9hg1cWFsGKcKdEZ0NF03iWDxcEnGLJA2IE5vzoTuhXxEP100sariPoiORBnoEVi/IFOTM9C1cNNkgz/Sm8KqFcEGqsKKx4QwECTlIF8MAFj42mSF/1tNRTjy+yAtSC6ni/ocffqhGBX6ja7LeEAscupodEGPkBg87yAudlXRJj7TRT7EakjbWQCx4hg+6KuSScqIjkg+EF7lx8WRPCvRdrIykgTwQWowW4fKYDP15Nb3OCV9wVJ3whWHGy0QDpTFCjCA4HNyH9GDqxpJHZ4HfNeZu3DmZmaGBQvJocLZpC40IEoelj+f4Rxvho4Fz0tnQ8G1GiQ6MjoxOhMXJNDisfcjwNMJnRaFTxN+dNXc0QtLA6kcadFTIi1ketwU6PqyMNGbcOyF8EEM6EdKho6XzJB1mcehIKFM8HNYxOOGLh9pyGR0BR8ARcARiHQHGf8ZU3OoYYyN5mM7D5De6k+ke3GcyG0sVm82x5AUrHvoYV3QZyAn6GGvUmNBGpyE+OhBLWGzSHjLGZLaVBfKFGyf6mlkDIXWkzckmLOh0hCc98se1ER3K0gjFhHzRqZCDiXYILPeQA90rtFykQVqQGfQ+dEFIF26hkCsILbodMmPZDM8PgwNhwCP0QE4IGkt6SJdd201erIvgiEycGAcOHjyoZBddGFJMfpA5ZMcaCikGP8gi6fEcch0uT6gM/fWbPNyls29oOuHrATcaBzM7WLhobHbQGCBnNFpM7vymcUEOmRXhnoWBEPKbl5OOiQ6ITgXzPp0NV3tOp4TbJw2JsDRkwtDpWPqY7kkL2SCh5EfH1FMDIwwdFXkyS0MapA9hhTDSMCF/3KcM3Id4ciW8pUs6NGo6W8LSyOlQesrTMIqlK3LSMTjhi6VacVkcAUfAEXAE4hUB9IJoET4wQk/iJN9Q3YPf3LOJc8gJ+g1X7pt+xW+LSxxLz9IkPr/t4LelYXlY2qHp88yeW5r8Dz+4F5pXaLxQ2YhHOOQhP5MhNK7d58r98IN7PT0zOS1+aJlDZbBw3CMtOy1M6P9QOXvKM1y2/vqPjE74+oamE76+4eax4gAB6xiCED7i2BkHRXQRHQFHwBFwBByBPiNg4x3X3hwo/9EkfL2RycMMHgR4T53w9a2+nfD1DTePFQcIWMfQG8JHWGavsOhi3cUa64cj4Ag4Ao6AI5DICDDWMeYx9jEGPov4OeFL5Lch9stmep2v4QteV074AmDGi2ZnaDS7Z9fQZ5H6TV696ZwjlX+QdAdKVvJ9mkun1Rc4Mogx6OG6yhoA20U1SDk9rCPgCDgCjoAjEC8I2JosxjzGPsZAxkLTLRgjw49EInymA9g1tKzcMxxC70fy90Dk2ZfyGF527UsafY1Dnm7h6xt6Tvh6iRsvGT7LrG+jk+S/HXQK7KbJWjx8mUOfWZj+vuJLzppBrtHI73nkBy9kBZtoHuDyNMLHwIVsrIlkvSQLqNnBivWNthtYNOX1vBwBR8ARcAQcgWgiwFjHmMfYxxjIWMiYyNjIGBl+JBLhM90N/Y1yhepS6CvoLTyLBvEjb3RINpvpCffwehio/8iJfOBi2ERTFtPr3MIXHPWEJ3w0WHZIYtcits3lZCvaoMSMl4xOkO15bccngxsiSGfJ7pzspkTnEOmDTWH4KDo7PIXnx392VGLDFcpL2flNGfpyEI+GzWYvQXGjY2DbXj6ayjdlonlYxxDq0sk96ouOFVzYrYoduNi2mY1y8vPzlUQTBhz7cpIHpx+OgCPgCDgCjkAkEbDxpi9jFXEY65g4ZuxjDGQsZExkbGSMZKwkjI1pjOkDtYYPGSCi7CSJPmZ6HZvJofOYjL3Fm3KxEzm7mKPjhMZHX0FvYZdz9MjQZ71Nv7fhSJs82DV96dKlunlfaFyeIys7a1JPpsvaBnuhYXv7mzpn88Dwcj8rPrKgT/KJCfRe5IrmQf5u4esb4glP+NhBk2/c8WF0PtI5fPhw3VqXHSzpOHp70DGyfS2fS+BbJ6EzMJCgbdu2aR6QwdBnvU0/aDi2yuXzDuwkGp4fnQK7bfKtFftgOt96oYH35SB9Psb5/fffa4cTnt/T0iQs2xEjB51zNA/rGIzwIQudKgPFyZMntc7YYplOi91K6eDpTFnT0NeTrZbpDHlf/HAEHAFHwBFwBCKJAGMNYw5jT1/HLeIx9jEGMhYyJjI2otcwVjJmMnYyhnIOFOEzPYxvHaOLoc+hW6DroGcEJWbobnybjk9VQWxDx230FdLm81vsno4+EamDtJGdz3fZt/osL54hJ8YEPqUFCeXD8nzGi09HUB99OahrPrnFrvNB0gAjJv/5Hh/vB7JF8zC9zi18wVFPeMJHg8Aqx3dTWJTMjAbfMRkzZow2IEgQRI5OjW+K3L59W19+yCDfLYE4cdI4+P/xxx/rd1LsPnGZIcEVgg+YkwZ54hZBJ8rsB42JTy3waQTuc6VzpqEQlwaH/zzfX8EaSd504HwGAQLJTBufTCANXC/Im++p8CFP1ppZY6Uh0GlhUeMbfszWYc0kD35Tfk6+G4McpMNvXAiQhU89QGaxGiKPfcsGv/45c+bIe++9p/kiI50P8vGdGOIYkUJW4kIQ7XMPfOOFD7gPNOGjrikv34xhwGJAo9PgQ628E3RerGXo60l8Tr6XQ51QH344Ao6AI+AIOAKRQIAxhrGGMcfGn76OX8QjDcZCxkTGRsZIxkrGTMZOxlDyG0jChy4H4YOUmn7Dd+OY1Ef/QkYmve2zWeg+WATRxdBTmCRH/zEdhW/rzZs3T3Up0kHHIl30HvQWvllMGug16EjoU2CA3oS+aLoUuhq6G4SI/PhmMc/ID3nQvZAJfQm9jUl79DXSRG50JwhsOOEjL3Qnvu08f/58te6RFgSdtNDd0LVIm/z4jJZ5Y+Guiz5KfHRc8kB/Qx7qmg/MY92kHFgLCUOapEUZ+LwXOh5pUH6wB1+eQfjQe/kfzcMJX9/RHhSE78svv9SX3GCiMTBDQqfGzA3EZ/Xq1TJ27FgZOnSoNg5ebKxiNHY6Axo838LDWsh/3ACY/Zk6dao2PF78Dz/8UGeKcAGgQ5oyZYo2REgmefEfcz1XGi6NCRLHDBMfNWfmhvuQSxot5JL7xE1JSdEPXPIxdWSdOXOmvP7669o50SFwcIWAkg7y0JnYQSOhw4PM8ZF4KxdlhIDSEfIbKx75kT6kmMZOxwQ2fJSdD7DjTopcWBiRHVnp1EgT+Sk/cRkw6JhihfBRflw/KA8dOwMbMjLQ0dHR6T3PSbp0ogxEdMJO+Ozt86sj4Ag4Ao5AfyPAGMNYw5jD2MMY9DxjGHEZCxkTGRsZIxkrSZex0yawB5rw/frrr6pXmBsnJAy9CL0OnQp9CR2Ie1jCFi1apC6fECJ0mWXLlimZZRKfMEzWQ/zQb7799lslYOiAED50OcrLM0gl+o6RI3QmdB7IGHqVEbDTp09reuhExCdf5EJu0oRIo3cSDpKHTkn6n3322Z8IH2WE0KNvIq/pe7xLkEt0Nz5+js6GNRIrIZZASBlk8pVXXtH/lI/8sWZSNsK8+uqrgk5pxgZ0PMqCWy96Hu8Uz8GL+8gOscVg4YSvv1tz5NMblISPWQ98pWlkdBQ0RGY8mMGicdA4IUFYtPgNQcTihlULqxqEiNkdGqy5VdK58IzOks4Aqx2NiZkc0qKxciUesyc0bDoO/mMJhHhimaNDgZTxjPyxokGaIJvffPONfuSdDoC833///ccsfHTGNHAaNfEZCOygYyAvCCrlBgNmhWbMmKHWO8qIVZDOh46dDgHiSFnpUOgAKCvklfLRWUCOmQVDHjoEiCxkFUyxQH711VfaQRGXjmKgLXwMjuAAnpSRwY2ZNWQ1iyb3mbGygY3OtTcn4ZndY+ClvE747M3zqyPgCDgCjkAkEDDCx5jD2MMY1JexizGPsQ+vHsZCxkTGRsZI7jNmMnaSH+NhrBE+yo3+NGzYMNVJsNAxoY7ugq7y5ptvqr6DpxLEDBdVdDr0IIgQugyT5cRBD+JEH0RvgfBgTSNNSM/o0aNVzyEdJrfR3SBX6HiQRybaIUTolOg86FwQP36jX+FGiR7Fcwgj+hi6GDL1ZOEjX8ggMiEf9WAHdYGlcsiQIapXkjcWSnRALIzomv/zP/+jeiNy8p5AQCGO6JmffPKJ6orocOhu4IQui44HaaasWHfBEZnBl7Kgszrhs1qIn+ugI3x0WLy4NDRmfXixmcmAsNBIXnzxRZ1NYVEsDRN3UGZNMIPTIdBAIHMo9MzmYIXD+kcjoXOgIdHh0kghj3SczJLRcOg07BnkiRk0Gj0kEVkgdKQHyYOwQZjolOjMCEOjphFyQOwgjaEunaSNRY4ZLWTivx10DKRFHNY1Ghmk46aTobw2k0PnTodFRwUudBQ0evKnY4I4YtkDQ37TaYKVLW4mX7CCkFIOBqJYIHyGhV3BlfIwqFE+Fqoz2PE+UH9BjtCB1wlfEOQ8rCPgCDgCjkBfEOiPcYexjjGPsY8xkLGQMZGxkTEy/IhFwofOglUSDyX0LPQXCCs6DGv9/va3v6megj4C4UEfQ6ei7BA+iBykBsKE9xI6EeQXvQVdBz0RUszY/u677+oz0kXP4gAnvLfQidCXiItVDp0SrzB0K3RD0sUaRz6QRNPHSJt4hAt36URH5B46FnUSSvjQ49Av0ScpC7oX5ad8TNajS2J4QL8DI8qMUQEyC1EkHjok+RMPWflPebD6kQ7vBumSF2VEL3XgEMMAACAASURBVIW8OuELbxmx/39QET46R15cGt5PP/2kLz+dApYpfJshS8yG0FCZ8YAg0WBwE2DmhucQMhoALz9Wt1DCN2LECCVkNB6shqTFbkJ0EjR0rGY8Y3aEho6rIw2ZmRtmYsiXGRTy5GTWiQZOHKyDNE46EsoB6aTDYTaHDpiDjsCIG0SOMhCW+8hLWqRBx0iD5j4kjU4GmbjyvzeEj06LzpSwdFSUAVcBOicwBitcXHEFofyxSPgMG7CgDNQrs4SQdOQH994epAXGlJWT39zzwxFwBBwBR8ARiAQCzzvuMMYx1jHmMfYxBjIWmn7Q0xgWa4QPeSA76CBMUGMpg8BhOUNfgtC99NJLqptAtJi8h9iir6E/8Rw9DFLHc3SgUMLHczBB12FiHyMAE+9M/uPuCkZ4NbFxDO6dphcSj/zxogolfKabMVHOciMINmmjM+JVFU74SJu6gahC1NCvONDfqCf0OXRBdDjqEz2TsqF7Qt4gfJA58ggnfGY0IB3CoLNBBEmHuBBW+49Og86HPkxYJ3yRaNGRTTPhCR+uj1immJEwIkLHgJkfcgKRM99o/KlpHCjsEBUaNTNFtnMSJnAaFpY90sKXmf+QMxod5nB8nukcIER0DFgT6URpgFi6mEXiCuGk46FB2awQnS4dAOSONCF/yEiHhrmd/+RD+siNrDRKI3x0PDRqSCyfiKDsdGBY4fAZh/BhrWSGh06REyJGJ0Y+lJN0afzMPuH2ymwXHSEdDjiCB+lRPjo4wpIvHSiza3R23CMuM1KUF2JLJwEZjeaBXE/7Dl+oLISlTikr9YurKvd6exDWCV9v0fJwjoAj4Ag4As+LwPOOO8RnrGPMY+xjDHzWuDfQhA/vIQgZeoV5GEHwuAdpMksaHlT8xwXxn//8p+o/WK2YCIfooU/h9ogFj8lq0uIZOhB6EXobegtEizwhOXhhoR/i5gqRg6CxHAaLKJ/JQueCQOPdhScVeidpYFQgDdLFIgeJA2/W3UEGMS7YpD6yQGDtMP2PNMgPvY175ImhAt0QvRG9En2P3UpZp4h+iicY6/Igg+hl6LiUBz0NowHxWLaEPITBgIH86DLoeqQDiUV3hEiybwTl4hmEGn2UsNE8eD/9swx9QzzhCR8md0zQkDF2JMJEzQYjdGycdHa81G+88YbO9GDShjAxk4I17K233lJCRiOj8bK4lw6FBkcDgOQwA0Ijg0gxA0KjIU86DBoDsyU0Tho7MtBoSZ8GiCwQQ8LTgUCSaHBY/CCJECabycEdgQXFyGCLiwnLcztoDHRahIVUIj95QvQoL2SRmSfukSdkj5kmZMS/HTcAZKZDo6FDFOkM6DjZiIX06NTotJiJIk0Om4Vixoi0cVGFNPKcDgVc6FCieVjHwIwa9fWsg/Cc4Mk1yEF4cHMLXxDUPKwj4Ag4Ao5AXxHoj3EndMzrzbjHWMqYitLdm/B9LVtP8cgPPQydDfJheh2WNsgOYzdXdDgIGCQQXQQ3TNa/Yb1DP2HyGp2NiW50IAwA6E1MmFM2jALoeegt6GsQPXQfyCM6DSc6Emlzn+d4aEHi0AMgcu+8844aE0gDXYoJftJFR0DfAkdIJOljWSNtWweI3meH1Q/6ExZM07Egbuh/pIU+STqUDT0TfZP7Zm1EF0MuiC5rDykbOEGK0VdJF+KKfklc04EgqZBplueQNoSRdCk7ccCwN7qVlaU/ruDhhK9vSCY84aNh0oghJJyQLO7x0lhD4gXmGeH4zXMaB/85LQ6NgGcWn/+EtzhcCWtxaAjkwcHv8GeWHvEsTnhelkZ4WMITz56HVj95Wn6h5SINk5l8eEY5uUf40NPu8Zz7Fo98uWc4cJ+DK/esjBYvVBbSieZB3r218D2vXORFmZ3wPS+SHt8RcAQcAUegNwgMxLjDOD6QhM90EQiakTR0j3BdxPQq05UIwxgdqgdy70l6j+lz6DSm13CPfMCdK+khA8/5zT3O0Lj85uQ5J/kRn5Pflr6F40oa4QdheUZ5QstAWEuHZ6RneViZTS7+c1ocfpMmcbjaM2TjCM2TtO15aHx+R/NANid8fUM84QmfNazwayhcPOOlDQ8T/p84ds/i2/+erhYmNF5ouCfdJ0zoM/0Tknd4GvY89GphQstlz+2ZXUPv22+uPT23e3btKXz4s/D/oXEi+Zt8nfBFEmFP2xFwBBwBR2CgEGCMg0REc6IREjBQhM9wptzoNj3pN4QxnaO3V0vXrk+LZ2Esn55k6G18SyM8fGgeob/Dw/H/aWlYeEvjSf/tvqVn4XtK255ZHPsfrSv5OuHrG9oJT/j6BovHSgQErGNgcGKQiuRBXtEeeBloWFeKW7CfjsFAvQO8g7yLsXLQFnHVxx3JT8dgoN6BoOvA+9J+BmLciQXC1xesPE5iIGB6He6ofgRDwAlfMLw8dBwhYB1DohI+CCb++vjy++kYDNQ7wDvIuxgrhymkKAR+OgYD9Q4k6rhj7QsrC2OsH45ANBEwvc4JX3DUnfAFx8xjxAkC1jEk6sBrhI9dvtitdaAsPJ7v4LQu8s7x7sUq4WPXOjbWGigLj+c7OK2LvHO8e4k67jjhixMFKEHFNL3OCV/wCnbCFxwzjxEnCFjHkKgDrxE+dleNJZe6OHk9XMznRIB3jncvVgmfWyCes4I9ep8QSPRxxwlfn14Lj9RPCFj7csIXHFAnfMEx8xhxgoB1DE744qTCXMy4QsAJX1xVlwsbJQQSfdxxwhelF8mz6REBa19O+HqE56k3nfA9FR5/GM8IWMfghC+ea9Flj1UEnPDFas24XAOJQKKPO074BvLt8rytfTnhC/4uOOELjpnHiBMErGNwwhcnFeZixhUCTvjiqrpc2CghkOjjjhO+KL1Ink2PCFj7csLXIzxPvemE76nw+MN4RsA6Bid88VyLLnusIuCEL1ZrxuUaSAQSfdxxwjeQb5fnbe3LCV/wd8EJX3DMPEacIGAdgxO+OKkwFzOuEHDCF1fV5cJGCYFEH3ec8EXpRfJsekTA2pcTvh7heepNJ3xPhccfxjMC1jE44YvnWnTZYxUBJ3yxWjMu10AikOjjjhO+gXy7PG9rX074gr8LTviCY+Yx4gQB6xic8MVJhbmYcYWAE764qi4XNkoIJPq444QvSi+SZ9MjAta+nPD1CM9Tbw4qwvfggUh7xwO5eLdWpmwplMlbCmX2jiI5crlKqurapavrwVPBsoeEyyxsluWHSqW5pdNuS9eDB5JT1CzbT5VLU0uX9DK5R/GD/Dh0tUb+SK6X1rauR9FqGzpk47EyLdeUrYWy/1KVVNd3SNd/gjwKy4+29i45eLla7uU0SVpek2w4WvYYBuBV39Qhu89XSlphs3RGskCPSdY/f6xjcMLXP3h6Ko5AKAJO+ELR8N+OQDcCiT7uxCvhQ58pqmyTtYdLJbOgWSuLe+g1V5PrZfr2IpmxvUgu3qlV3eh6RqNM2FQgk7YUyrxdxXI1pV5a27uEOOHHzfQGmbe7WNC7pm4rku0nyyWzoEnT7il8eHzClFa1ycFLVZJX2vqYHlbb2CEHL1aqjhYer7/+m0678nBZj+Xrr3z6Ix1rX074gqM56AhfS1uXbDlWKmPX5MnxG7Wy80yFTF6fJyv3FSs5ouFxwm3sN7Dab66Qxgt3auWtyelS/ZAocr+j84FcvlcrPy7Mkqq6Dv3P/dCD/39KWx6/Z3G4PumErK4/WiYNzf8hnEUVrTJ2VY6sOlgqW09VyE9Ls+VScr3Ka2mGlqWz84GkFzZLYUWbnL1ZLV/OzFCZLQwdYVlVmwxfmSunbtc9SudJMun90MIO8G/rGJzwDXBFePYJiYATvoSsVi/UcyKQ6ONOPBI+dBP0ttM3quWDSWmy5Xi5oJpBdFJzG2XsqlzZcaZCTt6slT1nyiWrsFl2nquSL+Zkyp4LVbLmUIl8NTdT8ktbuklc2Duy+0yFTFqfpxPop27VytI9RfL94mxJyW18RPqQwXQ/opO/3UN3RI6J6/LkWmrDI12LcMWVbTJpTa6cul79mD5oIqjeFaIrhqetzx8GDg9rMrR1PJDzt2vl3WkZTzQQWH4DfbX25YQveE0MSsK381SZrD1Yola4ppZOuZXeIEPmZcqVlHqd2Wlu65Lm1i6BHNIQaSR0Fvxnhodn527XyBsT05QQ2X0sZhC+7+dnSVl1u5IxnkGc6Fg4id/U2p1Oe+cD7QDIgzQ5ec5/wpIn/2mMnPwmPeRj5imc8NExzNiYJ1fu10lFTbuMXpMne85Xqhya10MZ+G15kK6W52bNI8KHvOTF/YKyFvlleY4SPpON/JGDNJCxrb07PM+JC16xcFjH4IQvFmrDZUg0BJzwJVqNenn6A4FEH3fikfBBtJgcX5FUJMuTimTrsVKpqm1XHebE1WpZsKNQyqrbVK+pa+zQ6+4LVTJmbZ4UlbcKVrav5mTKuZs16lVl+hN6GjrPnjMVsvZAsepd6FRY6xbvKZKZWwsf6XWmV2pcLIud6E7d+iC6FuRwwppcuZxc/5juyET+xDU5cuxK1aO00Lsok+mUljb3OcjDdDjTQZEzVI8kLOF4Xt/cKWdu1sg7U9M1zf5oB5FKw9qXE77gCA9KwrfrVJlsOFyqZAXIaGxTNxXIthNl2rj/NjJZXhiRLJ/NzpRbGQ2Cq+TOU+XyzuQ0eXF0ilxLqVPC94+RyTJlY74QfsyaPMkuapY/7tXKd/MzZfzqHHnht2R5d2q6XE2u04Z9L6tRZ30I//bENLmZVq8Njjz++lt3nqNX50pOcbPcSK2XkctzZMH2Anl9YppU1rbLkqRi+fvIFBkyJ1PenJj6J8JXUtkmMzflaX64aM7cnC/X0xqkuKJVXpuQJhn5TZrfpZQGmbAxX9LyGvV68X69nH1I+OgEymvaZeyaXC3XF7My5K2JqXLqVp0S5M1HS7Vc/zM2VfgNIZy1o0gmbczX2bCzt2u1Awz+KvZ/DOsYnPD1P7aeoiPghM/fAUfgzwgk+rgTj4QPsgNx+nZeptzOqJd9Z8vlemq391NFTZt8OD1DNh0t1clrnbQWkT0Xq+T3tXlSXNmquuLQBVly8mqV7DxZJvvPV+hk/4HzFXI3s0GSzlbI+oPFUlPfoRPekDmI25dzs+RGWr1M3lSgOt5fRiTLyRs1SsbQx7Asog+OXZcvF+/UyPg1uTJiaba88nuKvDspTXW0grJWGb0sW0Yvz5ZPZmTIh9PS5fAfVdLY3KlLbqasz9M03piA5bLb6ys1r0m+XpCluhp6KNZDlvesP1Qio1fkyHcLs+TA5WrZd75CDRfI9dvSbHl7ihO+P7foxLnjhE9EG9+aAyUCEWQWCIKXV9YqS/eVyO/r89UNYOXeIvX7ZkaGWRLM3y+NSpZjl6skJbdJ6Ax2nquUP+7WyqvjUtXnurGlU3adLpdvFmSr1W3axjxJOlchDU2dmuZb41M1L9bh0RhT85tkxMpc2XyyQhv/v8enajgI6bGr1TJkfpbklbRIRkGTfLMg60+Er7iiTb6ZkyH/9fM9oQFPXJ+naw1xQ4BQpuY0KvE8c6dO80nObtAr7ppnblTLFzPSVTZcXmdtKZDKmnY5c6NG3p6UJidv1WqZhs3LlKziFrmd1ShjVuTI4UuVMn5DvoyjY6x43Pd8oJtJog+87e3t8ttvv8mcOXME5dsPRyCaCDjhiybanle8IJDo4068Er7T16tl9pYC1YEO/lGl+hNWMCxlWQVNMn51roxcli23Mxp00nrX+Sr5dUWuJOc2qR73+Yx0JY1YAGdtzlcXy0OXqpTgodcZ4eM9xcspraBZPpmVqToYnmTlte1K1EYtz1F9b/qGPCWOeHyhV0LKvp2fpRP7Oum+KkembciTnOIWGTY3Q6Ztypea+na1xGFUSMtvlsnrctUqiM6alt+k/49eqVYvMnTZ0up22X6yTMuF1XHW1gL12MJqieECo8LdzEY1eoxa7oQvXvqYvso5qAkfjYyGWd/UKSNW5OpsR0pOoyzcUSifz8rQWZORq/N0nd65WzWSdKZcUvKahAZ//naNruHDLQD3yUkPXSwx+dMYabAQw9ySFhm+NFtW7C3STgLfcGaQaIxvT0iVK/dq1Zo3Y1O+fDQ9Xf7r5/uy9kiZug58vyBLKmrbhc4Cv3IskJA/rHATN/95DR+Ej07k0r1adU9YmlQsy5KKhDJhseSK+f74zVrtyO5nNcjwFblK5vBt/3x6us5Q0ZmxcJm86Bh+XZ4rJ27Wyuwt+fKvMSnq5/3e9Ay1Vh64UClj1+XJxuPlmnasuHN2d7oP5MCBA+IWvr52Dx7PEXgyAk74noyNPxm8CDjhi626x8kRXW/c6hzZdKxM0gtbZNfZSpmzrUDX5EH4zLXxwMVK+Xx2pk5e7zxfJf/fT/fUw2rM6ly5l9WgxgEm6G+nN8iUDfnqFkpp94YQPnQg8jtxvVp+WJIjeHZBun5cki1M4n80NV0q69qlvKZNvaSYVGc5zv3sBpmwNleXFrHp39HLlTJ0bqZkF7XIuFU5cvJa9xo+9lVARiyFfx2RLNmFzSoXeumaw6WyIKlErYobDpXI53My5X/Gpco3cyhTmyzaVSirDpR0k9Sz3W6o7EPR1tElp5ncdwtfbL28/SzNoCZ8zO5AvE5er5Zv5mfpbpVztuQLlriC0hbd8fL3dflqOsdXuqGpQ35ekq1kDxdINm1hxoXZlRnbCmX9MYhatXw5K0PySlu0Ed5Ib5AfF2XpDNGMTXnqIgphKyxvlTfHp8q15DqZsj5X1hws0YXC49fny7qj3en8sDBLOwYIX9LZclmyp0h3EyXuL8tz/2ThM5fO66ndG6xAxpbsKtR0Xxqdoq6eNQ3dncLPy3KkR8LX0CHzthUIHR/uCbidDpmXpaQQ0rpsT5ESUPDgLKlq6yZ8J8q1k3PCt1t2794tWN8Y+CN5uIUvkuh62s9CwAnfsxDy54MRASd8sVXrEDp0pheG35chC7Jl6OIc+Zrr/EzdsZ3lMqzfg6RV17fLvO0Fwro+PLZ+X5enOg5pMJyj8+ikOev+dhbqMhlKG0r4mNDHpXL65nzZdaZC91EYqq6kDY8m8qvquzf1gzyevVWr1js2zoPwsWkLeZy/VaOEL6uoWd05952v1HV/yTmNMmRuptzKbFTvK4wRTM5jeFiyt1hWHipVF9Jxq3N1wh7Zvp3bTWIX7yqU1QdLtYIOXaqUBTsK1GqJHrv+cIkSPuSP5cPal6/hC15Lg47w0cCwlI1cmSssyt1yolwb28FLlUrc1h0q0VmQbacrdB3b2PX5SpjYvSnpUpWui8O6hwWM9Xm19R1S39ghc3YWyaYT5dpI35qUpv7guATM3lagnzvArZKNYubsKNSOBOsbuzox08Mi4uX7imXT8XJtyBuOl8uF2zXy8+JsgaDREV1JrlOL2sqDpRr2vSlpsvlEmeA2agfki7WDi5KKNY852wuFRo27KHmNX5cnW05VCEQSyx4unb+tyhVcPOlchszKkObWTnXTHLkiR1YfLlX5cekkDOTvl8VZsvlkuey/XK3rA7EATtyYL1tOdhM+kyUWrtYxuIUvFmrDZUg0BJzwJVqNenn6A4FEH3fizaUTksZau0nr8nSCH3LEJixY+/aer1QSxto2duNEt2FNHPsxJF2sUt2GNX52QPqw2KGzXbpbq7okE+OQqvFrc2Xr6QpJulStk+ZzdnVP0KM7jl+bpzrS3G0FuuwGvY7PPJAHE/wsKTp7o1p3jOcTD3iHXbyNt1j3Mp7hi7Nkwto8SbpQJfN2FGr+kFQ8v1jzt/1spaZD+jfT6x/pbtvPVKqbJ0txCI/cfJaCIz2/Sd1BVxwokWX7S2Tk8mx5j106Y5vv6UQ6nltO+Oyt7P11cBG+h7sX3UhrkMX7S/XEFZFFtVjR6BjKq9tk/8VKWXW4TJLOV8rx6zX6/RPW1RHn/J1a7TSw4DED1PJwN88L9+t1XRsunLgL0JEs2V+qszt0CMyaQPogkqSz/XSFFJa1qisBcfg8xMYT5fo5hZsZjbpW78iVap25oZNhge7xazWy7GCpJF2olJ1nK+V2ZveaPKvuusZO2YtVb3+pLNpXorJj5ifv3OJmWXqgVFYfKZOjV6vl6LUaLevxGzWSXdIqucUtsv9ilWIACUUewpPXrnOVklPaKk2tnXL2Vo0sOVCqchwjjZo2OX2rVu5kN+rsk8kSC9dEH3jdwhcLb9nglcEJ3+Ctey/5kxFI9HEn3ggf+g/r1dgFEx2PgyukjmUubJJ3/Gq1LDtQKssPlupmLuhcqQXNqtuge9lBdDbUY1M89Lo7GQ26I+e97EYlXOh26F/seInnF+kw4Y4Vb93RctUL0dHwLGOtHToWumVGQbMSMsLh3omLKfrioT+qNf6xK9Wqk604WKqfj+AZYdgPAr2NPNccKRN02/aOLnVJRX9ceahM8yEMS5cgmRBKDgwJbCyDrmu6LTotMsfyYe3LCV/wWhpUhA94eJnpAOxTAsyk8J/7nDRoXC65z0mj4rnea//P5wzsvsWx/3Qk/Nb47Q+ETyA8Spt0Hm6Xy9XyJU5onuzwhBzc56T9qVwPP4NAWPu0Amnb8Uj2h59JQI7QvB/JRJkfPkMGwpn8Wp4QecjLnhFWtxIOwcbiImesHdYxuIUv1mrG5UkEBJzwJUItehn6G4FEH3fijfCpTvOgW6cyfcn0HNOx0KdCdT7TudBvQlUbi4cu1PUwTZ4TjvgsE+IaGs+eq95m+pR90gpd7uG9x9P+jwspOhfpEY70+f1IdwzTVwnLQbksDvG4b7qe6Wrkx71QuQkXe5rc4y3U2pcTvsdx6c2/QUf4egOKh0kMBKxjcMLXt/oEP5R6Tn5z9uWwuHYNTYN7ln7o/Uj+flaeJqfJxf/nOfoa3+Swa6gM3Autm9Bn0fpN/uwQy06xWJtj5Yg3hTRWcHM5+gcB2mYibxbm7at/3hNPpW8IWPtywhccPyd8wTHzGHGCgHUMTviCVZiRiba2NmlqatKzpaVF+M9gH/To6OiQvXv3ypYtW6S5ufkx4lhUVCQLFiyQnTt3SkNDw2PPgubzrPCUizxWrlypstTX1/8pCiQGeVtbW1VWrs+zAQ94kZ6Rxz9l+IQbyFpeXi4bN26Uo0ePahoWlLSol02bNsn333+vmwTZs2henfBFE23PK14QSPRxxwlfvLyJiSmntS8nfMHr1wlfcMw8RpwgYB2DE75gFQZu2dnZMnbsWHn99dflzTfflLffflsWLlwoKSkpSvoIw4nSjwIQSmjsPvc4IU1r1qxRYgfJCiVA5IOFaNmyZVJdXf3YM6S2tMjjSfmE3rfwlnfof8KRx8SJE1UWftth4erq6pRgfffdd/LWW2/JO++8I2fPnn1UPtI1WYgTKqPlGSpPRUWF4nb79u1HZbNwXC3f8HRJAzI8d+5c2bp1q5JtkxX8jh8/Lp988olcvXpVjLiGpmFph6Zv9yyd572Snlv4nhdFj59oCNDm3MKXaLXq5YkVBKx9OeELXiNO+IJj5jHiBAHrGJzwBaswFPmMjAwZPny4WuawimHlWrJkiXz22Wdy48YN/Q/xgCBVVlZKbW2tEjviEpb/VVVV+ryxsVEJ37x586SsrEwgQTwnflZWlhK+RYsWSWFhocaBwEB4qD+u5E8cCBpp2TOsjjU1NZo/cpAeJ+E5uUd4LJP8Rp78/HwlslgVQwkfcpMHxPPnn3+W+/fvaz5paWly5swZJXykY+UiX4gs8bhyn7y4T7pY4JDljz/+UGIGQeMZMiML8lFO4nLyG/k4sYIStyfCR36kjeXvgw8+kNTU1EeYkKalgSyENfzIExlJm/tg+7wH6Tjhe14UPX6iIZDo4w59CmMqpLY/+pFEq38vT2QRsPblhC84zk74gmPmMeIEAesYnPAFqzAU+fT0dPn1118lKSlJCQaDPKQB0jZ58mQlGZChadOmybfffivDhg2TQ4cOKbm6e/eujB49Wr7++muZPXu2poWFj3jEHzJkiPz4449y8+ZNJZZY+EaNGiWzZs2SoUOHyoQJE9TCCBFCDu5/9dVX+mzx4sVSUlKiRAYiBin94osvZMSIEZoepMbSIr/ly5crqeT3l19+KePHj9fw4YSPvE6fPq1lvnLlipJWUAMLyBdE6dy5cyrbN998o/kePnxYSdSdO3fkjTfekF27dml8ZN2xY4eAz++//y7/+Mc/5KOPPlKSBql9//331eo3c+ZMuXjxoly+fFmmTp2qGFIWSCckmrDhFj7e6VOnTqn18aWXXtJyX7hwQbAgEhYXT9KYP3++Ek/SwTILPtTVnj17tO6CvRE9h3bC1zMufndwI5Do444TvsH9fg906a19OeELXhNO+IJj5jHiBAHrGJzwBauwnggfWEKKWIsHucMVs7i4WK1iECLIxscff6wWJn5Pnz5dSktL1aJGuNWrVyvpuX79uhIRSB5ELjk5WS18/CdNCAq/IYpYuCAphOM+5A9Cw3o/LGW4l0JCsdpBEiE5/IYEYqWDMPGc++PGjVN57927J7hrhhM+iCJEi3Sw9IGBHSg4kDfisZ4OC9uxY8c0H8gabpWvvvqqEjqseKytg2Bhvbx27ZpaRSF24Id8uMmuWLFCyaJZHMGHuHl5eUoI169fLwUFBX8ifMiEBRVC+emnnyrGhIPQYoFF9tzcXPn8889l1apVSo6pCzAB39ByWfn6enXC11fkPF4iI5Do444TvkR+e2O/bNa+nPAFrysnfMEx8xhxgoB1DE74glXY0wgfFj+ID2QGEgZhO3HihFqosGSx0QhkZOTIkbr2zEgZFr5JkyYp2cN9EXICKcIyBcHDEocrJERu+/bt6gaJWyXWMsgVdckzXAixhkHkIEe3bt1SyxppQHogZpAb0iMf5MEih9zEh1QhRzjhI2/usb4Pt8hQYgShxTIGiYLEQrjMFZWyYmGD8OEGCxkEDyyY96is+AAAIABJREFUyA/hI96lS5fU+gnBe++999SaiDy4fIIVRJh0OSG7kGqIW7iFj5pEHvLFvRYXWSylWGOxeKKMkS4b07DGj/ywJIIbhBMc++twwtdfSHo6iYRAoo87TvgS6W2Nv7JY+3LCF7zunPAFx8xjxAkC1jE44QtWYT0RPu6xLgxrGVY3rEUQM1w0IReQt7///e9qtYJksb4DYjZlyhTBxTN00xbSwfoEMYOwQdawaHEfwoMF78MPP1QyiNUQAsXBGjrcE7FYkT/kDBdPyCMECSJnhI86Jz3cP7GEQRpJG2KHFS+c8LH+DcscskC0wgkf6UGwILkoPISBqIUSPsgVZOvkyZNK+LAmYv0LJ3yUDSIIAYOkkSc4QOSQEYwhjL0lfORBeDaX4Z0njXXr1qlrJ2lA9rAo9vfhhK+/EfX0EgGBRB93nPAlwlsav2Ww9uWEL3gdRoXw7d+/X5UQFBo/HYNovQMovrx70SZ8rOVCmY9UORlwTbGHLKDQhxKU4N3A4zFIC/dJ3CIpC1YxrF5YuSA5kBOes1Zu6dKlamlj0xUsfLgUsqaN8BAfrIFcn0X4cLnMyclRt8sxY8YI6eGqyG/b7CUzM1Nl2r17t24c8/LLL+snCbCsET+c8GFtwxLIbqOQKIgo1jDWCYYTPuoKgkZYCCzuoJA3LHlYIYkHcYN8YjnkyjpFiJu5dPZE+LDcsaYOwgmpxCpphI/3E9nBkU1YwIzn5MMnLJ7k0omsoRY+yC/lx6qJxQ85sGpC+rBIYiV0wvf4O+7/HIFIIWAKqY07/KfPjtR4wFhDP02/SJ9CfpE8jPC5Xue6XKTe6aela3qdE77grTzihA9FZtu2berCxKYIfjoG0XwHePdQnhmkInkwyNJJMeiSJyQnUuXEKgR5oOOLFOGDiED4sI5hicNlEAIB8SFfLF2QuB9++EEJJ1Y3NhGBcHAfuSCHrIuDkKxdu1atc8gNEWPNGmEghxCen376SckWlirise6PjVIgTFgKeQ7BgghCaCBH3GNjGNb4kQbWROQmXeocwoZVELdJysB9LISQIa4QWTuoP8Ljekk6yECaWBHBG5K3b98+tQ5izWQzFjapIQ0wee2115SgoXxR77bTJxZGXCohvpA0CB1WS4gi76RZBMkH+cATwkk81jBCdrGkgrkdvGcoeBBD8AZP1gjOmDFD5WadIzjxjHqC7JJmfx9u4etvRD29RECAviT0swz0efQhkRoPGGsYcxh76BuiQfjoX12vc10uUu/0s9Ll3YNb+BEMgYgTPjoGviNFBaG4+OkYROsd4J2zd68/LWBPamIo8FjByDfS7zubjESK8KEwQFwgHFi4IGxY3yA35MlzFAvcIyFfWMOwJBEOggXJIDzkBmLGPa7mDglO/IfU4XbJlbxIizRIi/riRA6IC/ctPfLmGaSI+8TlN/EgiaSHrKFpEAaZCIO8WPtIJ/SwcpMfrpCEJywKGzJDrEiHPLnPf7tPeMpJnpBDZIDMgZdtpEKe3MNyR1zy40Rm5Cc/TqySpEt6xLWymKzE4R7pGBakS/rIgXwWh/y5D979fVBWrMsQVfKJlQPssK74tvGxUiODSw7aZyjho6+O5Jhn4w1jD+9+pA/afejYGsmyedquL4a/A/buwS38CIZAxAkfio2fjsFAvgMowwzCkT4YCCEoKPCRLC/pkxdKNsp2f7t0RhonTz8xEHDClxj16KXoXwTCCR/tJBpjAmMPeUX6oHyMqZEc4zxt1xl78w5E+l1PtPQjTvjogPx0DAbyHYgG2aNjIB87I1ley8MJX6J1x/FVHt5xt/DFV525tJFHgP451MJn/XU0xgTyisZBPpEsj6ftOmNv3oFovOuJlEfECV8igeVlcQRiCQEnfLFUG4NPFgbkaBA+U5h7i7C7dPYWKQ8XCQR4X0MJXyTy8DQdAUfAEQiKgBO+oIh5eEcgRhBwwhcjFTFIxYgW4cO1h3WU5Nebwwlfb1DyMJFCwAlfpJD1dB0BR+B5EHDC9zzoeVxHYAARiBThM4sKijMn//vjIB2UduRmQxKupN/bg80P+Mg5m5U8S/nvjeyEYdOT/igj8rBD6OXLl3UdZ2pqqu7eCVkJcoCRyU484rMLKOmBWX/VRRCZnhSWMkfawgcWfMCeeuezHGwU9Kz64vlAb9pS39QhZ+7USW5Ji3R24uotei2tapOzt2tl76VquZnRII3NndLW8UAOXqnRe9w/d6dOqup63gSHdFrauiQ5p1GOXavRsOXVbdLR+UCyCpslJbdJ2jseSEZBsxSVt2q+T6q/8PukzdnF2fVA2tq75HJyvSRdqtbz+PUaSc1rUpkJ05uDcCVVbXLyVq2mZ3HIB7n/uF8vrW1dgeS0NHp7vZXVKOkFzYpLb+M8TzjaqFv4ngdBj+sIOAKRQMAJXyRQ9TQdgSggEEnCx66Ox48fV6JBPv1xQBDY9XPv3r36mQZ22eLbd709IFR8UuHw4cNKFp9EfrjPLprk8yRiSBh2xEQGPsXwLBLxLBkhjnwXiM9XQEr4Jh7fBWS3ziAH8kJs+M4fMhKfdEgPwvukMgfJo7/CRoPwgWtycrLW5c6dO+XUqVP6DUiweNIRC4TvbmaDDFuQJav3F0tzazehqanvkPWHSmTKhnxZtK9Elu0tlpScRqlt7JD/Hn5fJmzIlzk7i2TE8hzZeqpc2jset2hCkiBzF+/UytQNeTJ3R6FsOVkuBy9WSlFFm2w7XibL9xRpfjfT65X0Qdx6exC0sLxVbmc0KKlErt9X5sjI1bmyIKlE5u0skgnr8uTY1WppaundRA1E9MKdWnlrcrrU1LPDb7c0kODL92rlx4VZUl3fIZ0B5OxteSzclC2Fsv5omTQ0905mi9fXK23UCV9f0fN4joAjECkEnPBFCllP1xGIMAKRInxGOtgBFMUFKxNKNLvAcZIvirhZxwhvJ/d4jjWKk/Dc43lKSop+245v8EHaUOAhlRw8JxzhiUd+nKFp8YkCvs/DpwfC8zGZiMMzyN5HH32ku8nxP5wokd+qVatkyJAh8u233+pnDAjDfdKyE1n4zf2envHc7hvhY0c+rFJXrlxRV0TSRQbDw9LjnpWXexaG7xhCHHkGscFqSHr8t/JZPOKQP3nwzPLgGv4sPM7zvp7kG2kLHzLy/vE5DL5dyMee2X6e9wCrJ/hY+a084DCQFj5IzZYT5bJ0T5GMWZEjlbW8Pw+UTI1cli3nbtUoocoubpGy6japb+6UF0Yky53MBqlp6JDdZytk7Jo8wRoIMYILccUSCCH7aWmOnLhWLRU17UrusF5V1XXI9hNlsmxPkbS2d6nFjzgQLs629geP7iMLxBELHtY10iUs8Y5fqZKVe4uVhEHEZmzMk/O3a6SptUvz23S8TAlpYUWrkjTiYHEkffKBz3HlPunyjPhvTEpTi57db+voUsL3/YIsKa9p1/RJA9koL6fF56ppg0NXd5qWDveJw5Vw7Z0Py2bla++SCZsKnPBZ4/CrI+AIDFoEnPAN2qr3gsc7ApCESHyWAQU6PT1dSUdSUpKSFj5ePmbMGBk3bpxaxfhmHh8T5mPi9k27W7du6UfLsZzxEWDC8xFzlHO+TceHyl955RX9nh6ysy4LSyJkhe/jochPmDBB42EJ5Lt7fFSd7/Bg4YIkLliwQIkj38obP368HDt2TD8qzsfZSZ9v/XHviy++kBdffFE/5o4VkTzs4DfxIXoQ2nfffVfJGeXm/vr167VcfNiVPCAPEAvkhXCsWLFCwIWy8UFzXEwhWMQzCx9lgXTa2jM+jA52fLCdZ3xrj/KQPh+UJ13ubdq0Sd5++23597//rR9MB3fSBWsIG6SXj64TB8sflkDDEcLJx+HBCOypA3BmC3XIEliSP2lx73mPnggf2EbiJC++2cj3CiHAlI0JA8oP8eOZ1fFAEj5eMyx507cUyMkbNbI8qUgu3a1VogLxm7+jUBbuLpKSSrbQ7yYrjS1d8tffkiU5u1EJ0sV7dTJ2Ta7sPVchJ65WS21Dh1rxriXXyeFLlTJqZa6G+88b3U2QdpzsJnxYsnafLpe0vCapb+yQI5erZeSqPPltZe4jsrnhcKms3l8iEzfky7j1+XLpXp1cTa6ToQuy5NVxqfL1gmzJK2mRWZvylJhBCDnyS1vky7mZcjWlXqpq2+X7pTkybHGOYEXLKOh29zx5vVrGrM2TH5flyv3sRs3zpdEpsupAiYZffqBEiSsWvu/mZ8qypCIZujhHxq7Pl5TcRiWj2UXNMndXkQxbkiNj1uRpWSB1afnNeo88l+0vkaKKVn2GtRTCO2pNvpLVXWcrNK9pWwrk4xkZTviet7F7fEfAEYh7BJzwxX0VegEGKwLRInwo07jSQeRQtocNG6YkjHsQi7t37+p3ppYtW6aEAgJ4/vx5dU2EwEBKsVBdvXpViQzkDWufWaEgg4sXL1ayB2kkHAQFovbaa68J6ZI3rpdffvmlXvn/z3/+UyZPnqxr5w4ePCjDhw9X+SB9kB6IE8QR+UMPLF9nz55VWSEQWKlmz56tFjLShUxB3JABeYYOHarlpVyLFi1SGbBMIt/EiROVAELW1q1bp/Egr3PnzlUZIGgnT57U+xCttLQ0JXy4fV6/fl3/b926VdMER1xRx44dq3lCJMEJeSCdxFm4cKFAbnH7ZF0bZYbo4voJmQNrZIb4vf/++7r+jzTACZLKekDqMOjawlD87Hc44QMD6gESHakTYgzRAw8IOVcmHagPsOWdGkjCBzGC5Gw8UiJZRc1K9pbtKVQLGoQFUjRzS4GMXpkjV+7XqWskBO0vI5LlVnq9EpjZWwtk1rZCJVcQs9PXq5XAYdHbfbpMNh0tVbJo9cAVi5gSvt2FaiWcvTlf8z56tVomrsuT0zdr5fDlKvl+YZaSrVHLsuWbOZlK8lYfLJWpG/PlXlajbDpWJjM358ud7Ea1TM7alP8Y4WPN4TcLs+XE9WppbumUlPxmuZ7eIAt2F8msHUXqbrpqX7H8cb9OMopapK6xQ87frpUXRyXL7jPlcuJ6jZLKg5er5Y97tfL6hFR1Rb2f1yQr9pfIyNV5cj+rQRbtKpT1R0rlXk6TbD9ZLt/MzVSXzPqmTknOaxZI8ajVebLnQpWW882JaUqK0wqa5dztWhm6MFsu3K2TC3dr5Ys5mU74Ql8W/+0IOAKDEgEnfIOy2r3QiYBAtAgfhAyLEEQJCxiWrenTp6sVcNSoUUouIE64Rx45ckQtUYTnvHHjhvzwww+PrHxYurCsQUYgOpCY27dvK1GBJGLFgkhQNggQ1jcIE9Yb0vrss8+ENLKzs+Vf//qX5odcuHlCPrGGIS/k64MPPtB0wuuaPGbOnPnIcgdZIF0IFkQK0oTlrqamRoksabJ2kDLOmzfvEVGkfJAtCCFkcO3atfLLL79oOAgkpA85SY80sMQhK/lTPiO8rFH76quvtCy4g2KJg3CCg8WH3EAQP/74YyXTpIN1lDwgc5AdiCHhIF7I/vLLL2vdQACRC4sjlkrkJu3nPcIJH3XJmkhIWCROJg84KWPoyT3I7J07dxTbgSR8uEpuOl4u6w6XKmFiY5IXR6cIm7jgjgjpg7Qcv1Itvy3LllsZjVLX1E34WMf3rzEpMntLgeSXtUjXgweSmtsoMzbl6+YvuGBC+JbuLtK0zGjNlbSxcC3dXagWrpmb8uXk1SpZlFQs/8/QO/Jfv9yXvwxPlv//p3uSmtsko5dly8bDpWpNu5FaLxBE1u5hQWTdITLiXjprc75cvl/7yKWyuLJVPp+TqZu5lFW1adjXx6XK//vdXSVrlJc1hZuPlurGM7he4tL55kOXTlxYWau4/liZWv6GzcvUTV1wx8wqapHhS7MFwgjpTM9v0nJBGt+ekCo3Uuokq6BZ5mwtkJdHp8j/HnpH1h4pk3M3a2TY/EwprW5TAp10plzzZ50h9THRXTqft6l7fEfAEUgABJzwJUAlehEGJwLRInxYzLCsTJs2TS10f/3rX/U3ljOsb1jnsOy8/vrrSgghhSjkP/30k7z66qtqiYO0QTRQxkOJEu6RxIWsQPAgMhwQPKyCEDGIHkc44YPQkC7EAwuXWdsgHk8jfFjmvv76a7UeIjMyvvfee+piiSsrBA0SQfkgZZCJt956S62MED5cKSFUPMNS+OGHHyrh7InwYSWEEFJGI7OUEXlJF8KMm+vf/vY3DYPlDTIaTvhw14SYIqetYYTYkSdEF8sdV9JEbkgv+FBv4IEb6KeffqrkG+KI7M97hBM+6oz6jdQJfpSN94RyQiq5gnHoWr6BJHy4GI5dmyf//et9eeG3ZN2M5f/8cl8OXqjQdW2QEIgbRASL1pqDJVJc2aZhsWxxH1IIgYPIpeY0yvSNeY8IH1bB96elS0lFq4bFssc6OdbisWlLOOEjffLBiki6nJCwsStzNDxupVgkF+8q/A/h2wfh63iM8CEX5+kbNfL7qhzJKWmRxTsLdVMXXD93nKmQMWvzdQdPZGeDFjatuZ5aL2dv1XRv2lLX3u3uuq2wm/DdrBYIX2l1u66/Yy0iFsgNh0v+RPjeGp8qF27X6JrCxbuLJKeoWSZvLpB1RyF81fLDgiyprGtXwrfnIeGjzJTj93X5buF73sbu8R0BRyDuEXDCF/dV6AUYrAj0N+FDYUeJhwxgFYJ0QKiOHj2qpAjCgcsjLodY+MifZ6xNgwThGglhgSzheolrJtY4rGOkg0UKkkL6kEhcOyF6WAXJCxdR4kMIUewhfJ9//vkTCR8WPqxWWMXYwROXRixMWNKwqGHhC7VmWflwCcQqxjpE8oO8QVxZP2jWRkgs7pgQJ0ipWe4gfCNHjtT1heTDeryff/5ZywPJtHBm4YNAEt4shpAWyB4yQDqxakJYKCekEHmw8JEOOJnFEcLHJjCffPKJrlsjHVxHyQfcsQRSfggQaRjhw7UTLCF9hMEdlPTB/3mPcML3vOk9KT7vGeVhrR7rHnHhhMiCB3UEwaNu7RhIwsfGK4t2FsrdrEZhbV5DS6e6HE5cmysllW2y8XCJXEutl1uZjbrObc/5St1w5e+jUtSaB4Hj4Iq1bOORUtl/vkI2H+u2mGF5W7m3SHD7vHS/Tu5kNcraQyWSnt+sLp0rkop0zV+oS+e4Nbly/k6tZBa3qNUN4jZhdY6GJx8+5cDunrh0nrlRI3O35svd7CYNO31DniSdqxBcJdmd88cl2XLkSrVaAGdtKdBdR6+nNciUjfkydl2+ypxX1qrunDM256u178LtWnl3arrU1neoi+fsnUWy8Xi5nL9VI6+NT5XDf1RJMi6d+4pl9vZCSctvkgU7CtVKikvnrtPl8vWcTN3EZvrGfHUN5dMWwyCHx7rT+WlRlpJJyCxrCL+enyWnbtSoO+g7k9KEzWZwR43GwbuISzMTEryLfjgCjoAjEAsIOOGLhVpwGRyBPiDQ34QPBR7yw0YhEB6IAQTv3Llz6oIJeWBDFFw3jfDxHEKD5QnyAtmAzGDVQjnH0sdumWyugTUMMsjaM4gixJEdKSFA5Adh4T55YLHCEvc0C98//vEPTYNNYSBEkDhIIuVA4cLyRp6QApQwTkgnlkB26DSrEDgSDpLKBjFY+LBOQsAoMy6oEFfSmT9/vlrKCIc7J2WHfFBuSGY44cPVExwIBy7kAyak++OPP6rljf/vvPOO5gd5hTiSJ4QZq6ZZHKkb1vAhP1hDdtn0BTzBsCfCBwFkDd+2bdvUrRYrLbukUvbnPaJB+MgDompEj3qFIGNF5lko0bPyDCThu5HeIDtOlStZgkxhQWtu7ZQZWwulvKZNyc349fm60cnmE93hICmj1+ZLQVnLo88WQMou369Tt0esVBuOlsm9rAa1/LGJC+vbvl+SI7+uyJV9FyqlrqFDCRQumY0t/9m0BRfKLSfK5JcVufLdkhw5cLFSLYK4XJ6/xWc+RN1HD12slLzSFqmua5eVB0p0wxU2llm5v6R7k5QlOcIGKFjsWlq7VI58rHx7imT4ylyZv7NI1h0r1zWBkzYVaF47TperlZBvBk7bVqSECwvn7vNVcupmrZaHtYqLdhVp+Lk7i5TUYYXE6kh+bNoybXOBpOc1qRUQUjpza6GA4ZTNBXLiRo2u+cOKSbnxVH6Ez9IcWbC7WGZuL5RTN7t3RrV3JJJXJ3yRRNfTdgQcgb4i4ISvr8h5PEdggBHob8KHosI6NixakBc2PCEPyAHkgg1LsGjhHohVDsWa5xAfCBRWJHNXhMRg1YI0QcawzrDrJmSGDVWWLFmi5A7FnXzZdh/LDYQGQgIx4x5yYInj4Mp/rF4QTSx8pAdpJH9cFbHokR4WLNwdly5dquG5xwkBQ37IJLJzWHjShiBBsFgbhxxY9CB0tmYOwoc1kvWHPIP4gQ/PIcqQOqyYkFbbQROZ2LCFclM+wkHQSAMcIH/Ij6siMrFxC3WAhQCLI5iz0YpZRiE/pIWFFPIDSUQG0iE84ciT+uI/OEK0iUOe4Ii8z3tEg/AhJ9Zm8IT8ghvvHXk/6RhIwgfBg6xxtcPW2EFkeAbBa27r0k8IEMw+n8Bvi6VxHn5ywH4Tn9+kzZo30sGdk/uh6eBSSRi991Ce0LA8Jw75kh9hNY2HbqQmI/f4TR7qNvrwcw/IEC4H6ROWtPm8gsnFfz6VQFoWh//c12ch5aBMyKznwzKSDvdVvodrFcnLTpPb0rM8iIPrrJ4PP9dAutE46E/cwhcNpD0PR8ARCIKAE74gaHlYRyCGEIAcQE5w6XuaAhxDIveLKChUkBbWvtkavn5JWOTRJikQJIgUedkBoYU04b4KwQp9ZmEG0zUahA88sWxiXe0tSR1IwjeY6t/L2jMCTvh6xsXvOgKOwMAi4IRvYPH33B2BPiMwmAkflkg+2YCLZH+SXTZEwTUSS5hZC62CIHlY5HCLxIrnhC86H14HZzutLp52dcL3NHT8WaQRcMIXaYQ9fUfAEegLAhEnfDZQ+/U/SotjEX0s+tI4+honGvWLbIOZ8GF9w53R1uf1ta7C47HBCWvecIOEOIQeuEqyngyX0t5am0LjJ9rvaFn4guLmhC8oYh6+PxGg/w936YzWmNCf5XhaWtEoj+cRfT0p3jB/2jvqz/6MQMQJH0qpn47BQL4DKOd0ZJE+UIBRNskvkuUlffIij8Ho0kk9Up9g3Z/WvWelG6k8I/1eRip9J3yRQtbTjWcE6CdCCR/tJBpjQiT6w57qgfJFujyRHD897cTRR3t6P/3ekxGIOOFjEwM2Sdi9e7efjkHU3wF79/qbGPTUpBhwGeh51y3fSLz3bOKBe+FgJnw94e/3oouAE77o4u25xQcC4YSPvpo+OxJjQehYw9jDGBTpg3Yfmm+kyuXpus78pHcA/Qpu4UcwBCJO+Nitj29jRVIBftJL4fcHd4fBO8e7xxnpgdBmPXnnWP9FZxSp988JX7BOzkNHBgEnfJHB1VONbwSiTfgYaxhzGG+wvJF/JA/GUhtXXa8b3DpWpHScp6Vreh3cwo9gCESc8LElO9uas/7FTemJY0qPh7rknePdi8YHcBlkwYTOiAGYDT8ihZG7dAbr5Dx0ZBBwwhcZXD3V+EYgnPDRTiLpAslYw5jD2MOYEw3Cx5jqep3rc5HScZ6Wrul1cAs/giEQFcKHqwGdHh2Rn45BtN4B3rnQtRTBmkaw0JSJTspmpmzgjVRZkY48BusavmC146EjgYATvkig6mnGOwL0+eHjTqTGgSeNO5HEEAsfhM/1OtflIvlePylt0+uc8AVv5VEjfFSeH45ANBHgnQsfeCOVP3n1RPgilR/pOuGLJLqe9rMQcML3LIT8+WBEINHHnVDC53rdYHzDB7bM1r6c8AWvByd8wTHzGHGCgHUM0XTpDLfwRRIqJ3yRRNfTfhYCTviehZA/H4wIJPq444RvML7VsVNma19O+ILXiRO+4Jh5jDhBwDoGJ3xxUmEuZlwh4IQvrqrLhY0SAok+7jjhi9KL5Nn0iIC1Lyd8PcLz1JtO+J4Kjz+MZwSsY3DCF8+16LLHKgJO+GK1ZlyugUQg0ccdJ3wD+XZ53ta+nPAFfxec8AXHzGPECQLWMTjhi5MKczHjCgEnfHFVXS5slBBI9HHHCV+UXiTPpkcErH054esRnqfedML3VHj8YTwjYB2DE77o1iLbM3U9EOnseiCdnQ+6r13saBZMDsKTTng8/tsZLMVgoS0Py59rV9eDR6fdD5Zq30Jr3j1g0bfU+ieWE77+wdFTSSwEEn3cccKXWO9rvJXG2pcTvuA154QvOGYeI04QsI7BCV90KwyS1tLWJZX1HVJW0y7lte1S09Ahbe18mqX3skAWG5o7pbW961Ekond0PpC6pk5p6wiW3qNEevEDOds7Hkhza5eSVv6Tb31Tp1TVd0htY4c+70VS/RLE8kamABD2S95PSsQJ35OQ8fuDGYFEH3ec8A3mt3vgy27tywlf8LpwwhccM48RJwhYx+CEL7oVhmXv/L16+fvIZHlnSrq8Pz1DRi7PkSNXqqShqVOtdr2RqLSqTaZvyJNzt2oeBYd4QQBfHJ0iF2/XqLXt0cN+/IEl71pynczdmq8yQ1bT8ppk1tYCeX9ahszeXijp+U19In2Q4eLKtkBxq+vbZeiibLmR3iBdQVhzP2ISnpQTvnBE/L8jgPdBYn8OyAmfv+UDiYC1Lyd8wWvBCV9wzDxGnCBgHYMTvuhWGFao03fqZMTKXCmralMr2dmbNfLhtHQ5ca1aLWW9kaiksk0mr82V0zf+Q/iwHja1dslfRybL+Vs16i4aCYsXpPXK/VqZtTlfauo7JLuoWX5dnC27TpdLdV273ruaXCflNe2BrJZwtfs5TfLLshypqm3vDQwaprK2XYbMz5JrqfURI7m9FuZhQCd8QRHz8IMBgUQfd5zwDYa3OHbLaO3LCV/wOnLCFxwzjxEnCFjH4IQvuhWmhO92N+Err26jqAg2AAAgAElEQVRTUoZL4uajpfLr4ix17cwubpF9f1TL3kvVcj29QRqbO6Wipl0Jzf7L1XLkWo0UlLfK2JU5suZAiRy5WiOnbtZKYXmrunO+MCJZ9pwpl4OXq/XE+oYVDhfQ2xkNcuByd9o30xvUksb9q6n1mt+x6zWaDuFvZTTIrfQGOXe7VlLzmiSvtEV4vv9SlWw6WipT1+dJdX2HbD5SIvN3FHa7eD5cj4gVkHIVV7TKsWs1knSpWo5eqxGIKvlRrkv36+X4jRpJulglOcUtShQXJBXLvyekaR5Zhc1a5qsp9VpGXEgJd+hKtaZ3/m6dVNW1K3H+ap4Tvt68ya6Q9gYlDxMpBBJ93PH2Fak3x9PtDQLWvpzw9Qatx8M44XscD/+XQAhYx+CEL7qVGk74sGp1dYlcT6mTl0Yl6/q+O1mNsnh/qUzZUihTNubLncxGWXO4VBbvLpIl+0tl7bFyyS1pkR8XZMrwpdmyYHeRfL8wS7adKJPS6jb57+H3ZeLaXFmyt1gmbsyXudsKJLuwWY5cqZbJ6/Jk3u5imbWjSH5ZlKWumLhEHr5SLYv2lciY1bmy/WSZYDWD0A2blykbjpTKkT+qZHlSkUxYnycLdhdrvmNWZCvhm7o+V05erXrMHZVyke7MbYUydnWuzN9TIuPW5cvCPcWSktsoY9flyQ+LsmRRUrH8sDhbwxRXtMnY9fnyj1EpsvZImZy6Vi0/Ls6W6ZvyZfnBUrUkDl+eIxPW5cnsnUUyZk2e7DxTITlFzeKEr3fvsSukvcPJQ0UGgUQfd7x9Rea98VR7h4C1Lyd8vcMrNJQTvlA0/HdCIWAdgxO+6FbrkwjfxTu18ub4VGlq7ZSM/CbZfrpCfl6eK59MS5eTN2rUsrbpSKlcuV+npBBr28ilWbL5WJlu+oLFbcGOAskvaxUsfBuPlEpdY4eupZu3vUC2Hi+TievzZMfpCg1f29Ah3F+5r1ith7iGLk4qls9nZ8qU9XlSVN4q0zbkyaR1eWpFu5Rcr2QwNbdJiLvzVLm6lFbXdcj4VTly5kb1Y4QPC9+N1HoZvTJHUnKb1NX0XnajjF+TK8evVCnhm7uzSLByUqa//5YslTXt8sf9OvlsTqZaBlNyGmXE8hw5fLlaN4Qh3s9LstXSiJUQAjt3e4FcT613wtfL19gV0l4C5cEigkCijzveviLy2niivUTA2pcTvl4CFhLMCV8IGP4zsRCwjsEJX3Tr1Qjf8JW5wsYrrIfD9XHJniKZu7VALWYjV+TIin3FSvp+WpQtJ67XKMnLLW7RtXmLdhdLZmGzTFyTI6evV2sBsIYt3lmoZOiF35Ll7M1qdeMsqWyVFXuLZOmeIhmzKlcu3quXto4H6sq582SZTICAXa8RLGe7z1bIwt1FujavoKxVpm/Mkw2HSqSppVNO366T0WvydI0e7p6sO5yxkf8dsmZ/sczZVqjlYB0hZ0fHAyWBi3YWKPGkjJR3wfYC2Xu2XAnfphPl0tLaJQWlLfKX4clSWtkquG9+OS9Lw6bmNirhvJbaoOXfc7pcluwqlNa2LsUNd1P+Q5bdwte799gV0t7h5KEig0CijzveviLz3niqvUPA2pcTvt7hFRrKCV8oGv47oRCwjsEJX3Sr1Qjfz8tyJK+kRcpr2mTHyXL5bn6mWuMKK1rljYlp8se9Wjl/u1aGzsmQY1drpK39gRKvoopW+deYFLmWUicTV/+H8J25UaPkB8vfX0Yky5yt3RuqnL1Vqxa7K8l1MmNrgczaUqC7YLK27seFWbL9RJlsVutfvmQWNKnbKK6coYSPnTNvZTTKb8uy5czNGrmZVi+/Ls2WUcuzdd0d5HPo3Ex1BWWtYVZRsxy+VKnk9MPp6XLsSpXUNXaqpfLbBVly6W7tY4QPa2Io4ft0dqYS1+TsRpm4Nk+upTUoeb2VXi+v/J6iFkHywc112uYCuZ/V4ISvl6+xK6S9BMqDRQSBRB93vH1F5LXxRHuJgLUvJ3y9BCwkmBO+EDD8Z2IhYB2DE77o1iuWrnN36+S/fr6vrpe4X45fmysZBU1qucJVcf3hEvloarq8NzlNCR8WvtHr8uUfo1Pk6zmZknSuQtfwTVmXq5Y2SsDnGVhjx8Yt7NI5enm2pv/vcamy+0y5WvQyC5p1rdxLo1Pkr78lq7WtvrFDCdrYNbny9sQ0JW7svsmnEWZuyhfcSLHo4R6641S5vDYuVd6akCq/r8iRSWty1dVSCWFavZJWyvPh1HQ5cKFSyeDBS5Xy1xHJKsubk9KUMCIjawu3nKzQMpdWtsnfRiZLRXWbWvZGr8qVIXMzZeepMpm8Pk9uZjSo9RA5cFX9P790Yzd0YZZuQoPl8JuF2XIjrcF36XzG6+wK6TMA8scRRSDRxx1vXxF9fTzxZyBg7csJ3zOA6uGxE74eQPFbiYGAdQxO+KJbn2xmYm6ckD87WfOm7pBdD/4ve+/hHNdxrfv+Ya/qvap7z732Occ+DpItW7Iky5YVbQUr5yxmkRQlZlIMYs5ZjCIpJjGJOSDnnIlAgGG9+i2gqRGENMCeweyZb1dtzMzutPrr1d3r69W94eH8Y3XC8AgSnzA+E2/CScfl4bfv+j9CD3mGT9L0L5f8E/Py7wny8PueTH3bNHkW8uTzJ3H6hYW0P4kfyuwrh5fVBLnIi+/Uw/Puq5vn0xdG+E/yS8Tjdm/69Lbm4KXp3zIMjo1CcheBbJ93RPhyV7czoeahf4nwJd8aInzJY6YUMUEgDAwifDFpMIkZKwRE+GLVXBI2TQhk+7wjwpcmRVIxAyIQ+pcI34DwDPlQhG9IeBQYZwTCwCDCF+dWlOyZioAIX6a2jOQaTwSyfd4R4RtP7VLZoX+J8CWvCyJ8yWOmFDFBIAwMInwxaTCJGSsERPhi1VwSNk0IZPu8I8KXJkVSMQMiEPqXCN+A8Az5UIRvSHgUGGcEwsAgwhfnVpTsmYqACF+mtozkGk8Esn3eEeEbT+1S2aF/ifAlrwsifMljphQxQSAMDCJ8MWkwiRkrBET4YtVcEjZNCGT7vJMNhI863Lx5027dumW0FxefjGk8I4y7p6fHiMvz7u5u6+rq8pvvPAtpQxrihmeEh/TkT5yQPuRNON/Dcz5DWMi/v1yUEa7EMPIKd6IcxOE3N3mGfEPZieWFfDP5k/rs2LHDRPiSbyURvuQxU4qYIBAGBhG+mDSYxIwVAhgOM2bMsLfeessNjUwRHsOGPo9RwBigSwikE4Fsn3fi3r9onx9++ME+/PBD27Nnj3V2dvo4wfP6+npbu3atvfPOO/bee+/Z+vXrrampyfLy8mzKlCk+1hE2e/Zsu379upModGvXrl0e/9y5c/dIZEtLi49D33zzjatfiPP222/bu+++axMnTrSioiIvi2eMo3yS/6JFi5wEIhN3Y2OjrVmzxj744AM7derUvXIZg9vb2+2LL76wWbNm2dmzZ13mzZs3W3Nzs6clDunnzJljQb6KigpbsWKF54csX3311b0809lXRlMWeIjwjQY5MxG+0eGmVDFAIAwMInwxaCyJGDsERPhi12QSOA0IZPu8E2fCx5gFEVq2bJk99thjNnPmTIP8UCc8cB999JFNnz7drl275uTo0KFDVlVVZadPn/b4e/fudaK3ePFie/PNNz0eKrVgwQL79a9/be+//761tra6F622ttbzg7xxLVy40NOcOXPGiouLrayszMkm348ePWovv/yykzLKrq6u9jxIh8zIMGHCBPvNb35j8+bNc2LKc+T+7rvv7JFHHrGnnnrKvv/+e9u4caN98sknVlBQ4OHEOXjwoD355JOWn59vly5dssmTJ9vy5cvt8uXLVlhY6LLhXYzDFfqXPHzJt5YIX/KYKUVMEAgDgwhfTBpMYsYKARG+WDWXhE0TAtk+78SZ8CE7pAdSh1cLjxkEDLJ348YNu++++2zr1q2+fZMtj2zd5Mar9te//tXOnz/vv8njmWeesX379rlWQcKefvppJ4Xr1q3z/CBtEEDIINf8+fPdCwh5Qw7GT3SFC08fHr6VK1fe8zh6QB/hq6ystE8//dQefPBBj3flyhUvAxknTZpkzz33nP3jH/9wOS9cuGCvvPKKQU4hccSBLFLX8vJymzp1qu/MqKurcxmQhW2dQZZQbqZ+hv4lwpd8C4nwJY+ZUsQEgTAwiPDFpMEkZqwQEOGLVXNJ2DQhkO3zTpwJHwSILZZ48vBssU0TzxvbLyF9EDS8ZWy/xBMIWeL5QITvX//6l3vXUCvIHFsjN2zYYH/605/cuwZJSyR8kMLgFWSLJQQTLLlGQvjYAso21DfeeMO3d+JJxDv4xz/+0ZYsWeKED/La0NDgHj62ePId4vn73//et0GylRViicePunGhr9xxuUL/EuFLvsVE+JLHTCligkAYGLKd8DFpsXLHBKNbGKRLB9C5cK4lGA+ZMDQEg5SVegwr3cIg3TqA7mXrvBP6VxzPyEKAOO/GDeGDqL322mu+vZJ6tbW1OQHEWwaxOnnypJ+Rg/A9+uijtnv3bt/GSTo8ZmzL5MKLx5m/0tJSzxvyxxk/nhGXi8/777/ft1Y+//zzxrZQFs24RkL48ORBGtmOypZMxt/Vq1e7HBA4ZOYMH3YPXkbkJ9/t27c7iS0pKXHi+uqrr9qxY8ecyHrhMfsT7DoRvuQbToQvecyUIiYIhIEhWydejGxW65iwXn/9dd3CIO06gO6hg5lI+DAIeDGBbmGQbh1A97J13okr4YNccT7u8ccft3//+9/+ghS2PkLCDh8+7ASIOHj0IHLhhVRsn4TwPfzww4ZXj5eqLF261L1rgbBB+PDm4U2rqanxeJBKSFci4QtxsE24wzVSwkdeePE474en8oUXXrATJ07YkSNH7IknnnDCR55Xr171Lae8lAZ5kYWX07AlFZlIy1bVOF7BrhPhS771cpLwoTB01HAndrzkIVSKTEUgDAzZPPFu2rTJt5GwlUS3MBgPHUAHMQIz5WJcZ2UeQ0i3MBgvHUAHAyFIVd9gjmOxhT7IzfdU2zNxJHxgwjk13l4J4eEcHds78fzygpPPP//ct3DyEhPeesl2S8gSWzB5YQuEj62eeNA6Ojr85hwfz4kLEYPMQfbAh5en8JIU0uCV4yIOnj9eEgPZgliGcTMZwkcZ06ZN83N7EFe8knjsEgkfz6gXXkhe9AJJRDc4t8dLZKgvL3UJdYEgZtKi3VD9Jdh1InxDoTRwWE4SPgZhFJ9VEdziqR6UB4ZeT1ONQBgYspXwpRo/5S8EhIAQEAKZiwBznAjf8O2DjceZN87u8XbK4N2CdLE1lReu8PZKXmgCMcNjx3Z1SAXkEGLHS1t4IQppIIX8+wb+jQJbJSF1gfDRJnjT+DcIv/zlL/0TCYnz97//3b1teAixS/AIEj8ZwhcIHh5HZIDIHj9+3AkmhJQLGdnK+Ze//MU9mtSdciCYeCz5txKQRurJzW+9pXN4PYp7jKwlfHRwOhEdllfvsqLBtg72WNPZWdGgc7MKF1ZZ0tGYdERWVujsYS/5/v37U74ql466hTLAnnNE27Zt89UnBprxuCiXwVyEbzzQj75M9IpzEay40ofHqlf0ew6xc491DEAWZEI2ZERWXUJACAiBVCLAuCPCNzzC4AQxwhOWuMjPOM3iP/9+Ac8ZnjC2O3JWj3+VwL9WwGYjDufk8AiSBsw5Axg8fJAoxv7wP/2YTyhn586dTrCQkDi8DIb88R4eOHDAvYqEQeKwRbENKS/xQnY8cWzHxG5lnuElM0FmykJOtqXyfwS5kJFn2JbIlTi/kR7Z+HcO1JP74sWLsZmzwEP/hy9RQ0b+PWsJH52GrRzscWY1hc7K6g5ubjoLqzkcgiUOcVEiOkm4+R3u8IzPoZ4l5hHiJTYFz3D1QzQhonQ4Oi3yhdfiDlRWYr6J4YnfQ3nhWWKaEBY+Qxw+ecaV+Cx8D2F8hmchTeKz/t/Bk0GNVwUziJJmPC7kSpbwkSbcychMmnRPvMnIlw1x0Sv6MQfSmQDHoldRtxeyIBOyISOy6hICQkAIpBKBKMaxMN/xOZIL8sAiKnPrSNOMJF/FEQIjQQCdE+EbCVI/j5P1hI83EkHqWEHhzVm4uCEhiYSPVZH169f7QVgO5fIdFzirMLxNiWf8zxUOyrIywp5tCNs///lPf2EG52bIk+d4E/Eksh0g8S1MDJLs+cbtjxueFSNWWrhZNSKcvd1ffvnlvXxZDWLrAASVvd8QRV7N++KLL7r3jHKRiX3meNR4jTBvbcJVz/9z4YUKn332mR8uhoxgkOLmpz7s/eZ1xOGfjlIftjrg3ockUw8OLtO5WMni/9ZA4HjOFgfwpNORP//PBpkol1UlVq4eeugh3zuObKyCjccVBoaRePiIi9HOtgZW2WjnZC7Si/Alg1jycUX4ksdMKYSAEMheBKKYd5jrmPOY+5gDyXOoS4RvKHQUlmoE0E8RvtGhnBOED68apAqyBCmBmCUSvuDKh+Bw8PmBBx5wTxzxIIO4+V966SV/axNx2ZsNkYTAEcZb6iBxkB3elvjss8+66530DI5cGKsoKYSPg8GJHgAGWQggWzyRkTdJ4SXgbVJ4AQljvzZEjPLmzp3rMnL4lm2ryAYhpHz+9wrpcOWzt5z/28KzQHg52IuLn+0BpIGsNTU1OXH77W9/64eS2XoAkYQ08hpj/mknRI/6QmRJx3NeD8yrgPnno2DMPvgtW7Y48YQ8suedNGxzGI8rDAyDET7CucGfdmLSY3sDXhr2xON1HelFPiJ8I0VrdPFE+EaHm1IJASGQnQiMdd4J57+Y85j7mAOZCwPxI//+V1wJH3VJvBPrxfNQ58TnqfoeyqPMTLyCfHxm2oVMInyja5WsJ3x45n73u9/ZH/7wBydM7MuG/CQSPgY9vF+QGP6RJW81QqEwMPH0QXwgdRAhPGL8Y01IDunwvrElk1ffhlfe4qXDM8fAGDoMZABSCAELg2poMso5d+6cl8EWT/IlPm+TwqsHkYOo4TGERLJdElLJnm9+46mjnnjeOKtIGaQhH7yUeCL5TRw8eOTNah7ysM0VefDUffrpp54Gggmx43+9QOQgt9SXulM2WLLnm3qTnrzxLkJ2kRF8yRviyaHk8RrUwsAwGOGjfcAIDyb1WrNmjW3cuNH3+Ye98KGNhvukLBG+4VAaW7gI39jwU2ohIASyC4Eo5h3mOs62MfcxBzIXMicyNzJH9r/iSPjACbmx86hXok1CGPYQthxzOL9TfVE+tiXypKO8ZOvDXIsdx2I9smaSjMgiwpdsi/bGz3rCh6cKkkfnCmSFLYaJhC8vL89f14v3DVIE4WPrIwMDhAfiBXFC+XlL0x//+EffpsjgQBwGSuLwhiQ+IRgMIImdhA7EllKII2Xzm3ButnXiyUNW8iBfBifIHm+BCoRvyZIlPkAgC9syIXwMGHj6Egkf5xTx2pEvBJI3Q/GyGogvryUmb8LoNLy2l4PAED68eMgF8YXwccaRVT+IG946yoA8sn0TLyEePrx/DJTc1D0QPlYMIanInojD6NR0dKkolzomEj6eUUcIOd5RPKFs4cWzy6FnvLxgQxwGupHeAVN0IV2vxx4dKvFNRZvoDF9820+SCwEhEC0CzGdhoZG5h7mLuWik8xbxGFdJx9zHHMj8xZzI3MgcyVxJnDCPkz9zKnNreBZtrX7MDbkgn9wsxmPHsCCN3ZVM2dSTxXHsFV6kQh3CRT7YX+zswr4jbqovymd3FEdwEsvjOzYTdQV7PjmukxgnUTZkxy5l5xltFNUFxhzjwebEdk4G66hkGCwfZBHhGwydoZ9nPeHDOwUxgoDRgX7/+987ecNDBaFhZYstj5AViB/bINnaCDljAIQEQYbwntHp8FhBoOioDIR0DLZYEofti4MRPtKS/8cff+z/Ly287YmBiz30eAfxkEHIGJggbJyz42xdsoQPGahr8LRBGiFxnEekzuQPQcMzyD8XZUChc+MdZNAIhA8PH8Tuvffe88E/rI4xuODRY9vmUISPAW2owWpo1Rx7aBgYAuFjkGXwYvLgnCFeSM5bMlFC7JlMaHPaYzQ36SG65JeulcKxoxSfHNBNEb74tJckFQJCILUIMMcx1zDnMPcwB41m7iINcx/pmQvJj7mROZK5kjmTuZM5lDsdhI+6Ic+vf/1rPy6CHcMCNbYKi/gQHeKM5ML+Qn7sL94enkiOCPv222/tvvvu851W/E71RfmPPfaY23eJ5UFwsbtYYMeOo84c9eH5QBdtgQODeNiiI8VjoLwSn2HfQfpZ8M80LyR1FOFLbK2Rf89awkdHgOhxvo3/q8KqDv8Hhe2OrJqwPRMvFme12LIJMUTB8ezR8SFeKBX/PJNzf3xH+elUhLGVMQyyEEbygcTR8dgW0X8FCiXlGQML5BCyhMcRYkl8SB3lQ8j4ZLClDEgi+XI+Do8axJXtlZA3zvPxm3N4eN4go5A24pIn+TBAslLH4MgqFufvyJswBhbC6NDUga2o4AbZZFBFTurL1k2IHfXm3rt3rw+e4EYeDKSQSOrOihBEmAEZmXixDKRvPK4wMATCx6CJd5UBn2fgAKGmHhB4JjcmzdHcpAVzPsGIAT2qwXc8sMvEMkX4MrFVJJMQEALjhQBzDOMic07iHDSaOYw05MFcyJzI3MgcyVzJnMncyRyabsLHAnzYYYWNg+3EIjSL0dhUkELCubGJICtggp0HWcVuw47iOTYV9cKTSXz+hQ72D3YQO6B4xq6o4N2ETJMX214hVuTFzYI6RA1bB+cBNhH2HOWAEYvtlE0YBBobCDsOG4x45MU/ZacuiYSP+mADYpsSH7uN/JAde5ZyicN7Hqg/5XEUh5fkYbtC3FnMZ6cYdQl2KXUIHly8mNiQODuw9agjuGKbkobjRdQXGw58CMfOxGam7tQVBwXlIDvf+ddGYE965EolSQx2He2oKzkEspbwoYgoPy8RgYRwB68dAxZEJvzjdTojYSgQHYXBDiUmHJIFoeKG+EDM6HB0BsIYIOnUPOOmI/GbDjaQwU/H4aUtDKrIRJmURVw6HwMN+UKUQmej0zPg0qnofJy5g8AiN7+Rmc5OnYK3kvjkw+DC4BMmBsqiHpTPQARZI4w3mXKDG+VRPwYEsMK7CY6kI0/Kpx7kxQCWWHdkZICCADI4UA/ij8dFvSDqgfDRJngnkRH8wAD8megYnKnPWG8GUwbGxEF8POqejWXSfvLwZWPLqk5CQAiMFgHmGuYc5p6xzl+kZy5kTmRuZI5krmTODNsG00n4ICnsykIm6smNHCxkc3wEUoSNg23CgjUL98SFBPJyPRaueW8Bi/PYVxyp4X0L2F4sfrOQDYnCboNYYj9h00G62N0FaWTHE/mzuM2uKMI4NsNuMN5rgG2EfcgbySGi2EuEcfSHRXO2yEKiwJKy2RGGTPfff/+ghA+5IZOhzuTJbiz+QTpHcCB5ODAgjryNnbyQkXJoL17+R/3xaGKzYdPx1vdHH33U6wBWr7zyitto2JE4NagX9Qt2MFhhC0PesAchy+RJuXzHvsMOhJyyG40Fb8I48oNcyJ6KK9h1yKkrOQSylvChFCgcRiIEhBtyxLMQFjoTAxjxuInT/w7p+QzpE+OSnoswvoc4AzUFZROHMoJM/A4y9c83PA/5Jsqc+IzvDEwMWAxGfA/5k4YrlB2eU1YIIz13KI8wfnPxmShvkCExPc+IF8LCb9KFfDyzNP6hLomEL9SNQYpJg8mNQRBSyuDFYMlz8An1R/Zkb+pOWbqiRYA2EeGLFlPlJgSEQLwRCPNasvNUiM+4ypzH3MccGBZqmRuZI3nOnBnmNdKxiMrcmsp5jrz7Ez6eIQvvN4AUschNHMgR5AySgg3EYjZHZCBjeKsgdYHwkZY6MZfw5nPIDHXGwwc5Iy/qzW4wMIC8EA8HAOQHMgdZgmCRJ04APHB4BvHaUTay/PnPf3YSxII7hJwdUGDGb+Th5X+DefieeuopJ4sQMwgs7UP5yATxg/DiOIDIQVA5ZgRx41gRcfDMIheeX/4VGYQRIsiONeoDJtiJYIWDAlkgoRBoHCV4cwPhw5ZEdraW4tUjLcSP9GAP4YM8851wsII4oi+puNABcBThSx7drCV8yUMR/xQMOgwQrO4Ez138azX6GoSBIXj4+ueEZ5LBjMEdjyjbXBn4WSkFS12ZhYAIX2a1h6QRAkIg/ggw1zHnMfcxBzIXMicyNzJH9r/Gm/BBmLBxOL4C+cD7yByPpwvigqcK0sLL7CAfEENIGvXEM8UCL6QRosORH7x7eAnxJIZdVaQnHzyBECoIHs8gMRBCCE8gOWybhAzh5YI0hu2gnMMjDAwhg8QHZ+YxFsIJH4zwcX4PoscuK85PYstAbqkLnkM8b+BAXrRZeEEe2z55yR7HeiBpvM39V7/61b1dTcgYdobh1cNrCTZ4SyGreA7ZmglxhPBBHMGEPNmuSXlgB15gQn0gfNQf8ku98HRCSkX4+vec8f8twjf+bRCZBHRGBgVWdhiUc/0ajvARzqDEgMzKFIMXW2OZENiHzqqarsxBAP2Why9z2kOSCAEhEG8EmOOY65jzmPuYA5kLmROZG5kj+1/jSfiYA/Bs8UZ1iBpHSiA7kFSIClsmITF44vBW4ali2yZki9/hpS2QFsJ4M3ogfJA1zsZRdzx05MM2RfLmfQQ8o3zwgQxCOiGagZwxN0GaAuHjpSx408gP4ofHkd9gzs32ysEIH2SMcogH3rQDJAyvGuQLggUhh2AlEj6O97CtlfaEKJKGm7wgaRBcvH2kowzIGt5OyBp1Z0smhA1MgoePelNmePs4hJcyiUfeeExF+Pr3ksz8LcKXme0iqSJAYDjCl1gEcRnMWTVj5Y9zhwNNdolp9D29CIjwpRdvlSYEhEB2I8Acx1zHnBc8RsPNe+kmfLxED28XJAVvE6SOnUy8aIRtioRDbniBCcQMAkSwpB8AACAASURBVAIphIxA7PA28RzCB2GC2ELCiBPO/OG9Ih/y5f0DEB62TeLp5MwcL8njLBxkB2IZPF6cx4MYUTbbDHl5CrLiNWObJWQauQmHGPICQeRAbggm2xITPWEQPEgYZ/9oD9KCNzLhbeOMIGSO+oT3J3A+EXmoL2cKIaNs1WThn7Lw3JIvn3jlIHjkSxmQPt7dwDZUtociF//yi62s4AyhpWw8i3gHcShAGNk2iveTMPIBNzyozNHgwfnHxHpF2YvQT23pHB2iInyjw02pYoBAGBgG29LZvwrE5x5sZbN/fP1OLwIifOnFW6UJASGQ/Qgkznl8H+5KJ+GDwHAWjv+R9+CDDzphwZMGGUIOvFwQPDxreNzw5kE+OIsI8SANJAnCRRrICeQukEc8hZzh462deNwgcJA2tkTyNkpsAeYdyCHbHTkPx1bM8EI7yoEIQbjY5snZO8LYNvncc885YURO8oFYQRzJAw8ZpA3ylog5ZUHWHn74Ya838pMGryHeSbx0EDO2q1JfCCgkjHpQHltHIX6QVdJSFmkgfLyFk3hsg6X+yMvNeUI8ncSn3siPVw/iiFeP8sAOwgs21JUX0AQPI3nw0hqOEVFXcILYJtZrOJ1KJpx8RfiSQezHuCJ8P2Khb1mGQBgYRkr4sqz6WVcdEb6sa1JVSAgIgZghkC7CByyUhZeOLZrceOYCgQrhkBeeE4+b38SB5EBW+GTu4OZ5SB/IHPGJQx6J+RCfCzuCuMQhf+IQxnPyCs94Thxu8iQO6YjHxe9QRvgkXggnDvF5Rp6hzqFOpB/sJg158hlkpe4hLc+QlXA+E+XhWWLdCA+y8j3Un2fkx8138gz5kJ7f3OTHnVgvjxjRH/IV4RsdmCJ8o8NNqWKAQBgYRPhi0FgjEJFJRmf4RgCUoggBISAEUoQAJIA5FaM7VUZ9ouiUEcgE3/uXGZ4lfpI+8Xfi9/55J4b1/z5U3KHKCPkMlX6gOIl59q9ziD/cZ8iD9CFukCPxd/je/zOkD8/7px3sef944XfUn5Qvwjc6VEX4RoebUsUAgTAwiPDFoLFGIKII3whAUhQhIASEQAoRSDfhS2FVlHUMEQh2nf4tQ/KNJ8KXPGZKERMEwsAgwheTBhtGTBG+YQBSsBAQAkIgxQiI8KUYYGU/JALBrhPhGxKmAQNF+AaERQ+zAYEwMIjwZUNr9p6B0JbO7GhL1UIICIF4IiDCF892yxapg10nwpd8i4rwJY+ZUsQEgTAwiPDFpMGGEVMevmEAUrAQEAJCIMUIiPClGGBlPyQCwa4T4RsSpgEDRfgGhEUPswGBMDCI8GVDa8rDlx2tqFoIASEQZwRE+OLcevGXPdh1InzJt6UIX/KYKUVMEAgDgwhfTBpsGDHl4RsGIAULASEgBFKMgAhfigFW9kMiEOw6Eb4hYRowUIRvQFj0MBsQCAODCF82tKY8fNnRiqqFEBACcUZAhC/OrRd/2YNdJ8KXfFuK8CWPmVLEBIEwMIjwxaTBhhFTHr5hAFKwEBACQiDFCIjwpRhgZT8kAsGuE+EbEqYBA0X4BoRFD7MBgTAwiPBlQ2vKw5cdrahaCAEhEGcERPji3Hrxlz3YdSJ8ybelCF/ymClFTBAIA4MIX0wabBgx5eEbBiAFCwEhIARSjIAIX4oBVvZDIhDsOhG+IWEaMFCEb0BY9DAbEAgDgwhfNrSmPHzZ0YqqhRAQAnFGQIQvzq0Xf9mDXSfCl3xbivANg9mt23ft4PlWm7Smwib23ZsP11ttU7cRdrdf+rt3zarqb9q09ZU2aW2lp5uzrdouF7Vbd88du9M/Qb/04Sf5LPqm1s7l37DbCYnaOm7ZtuON9v3VNi8/xI/yk+KqG7rt0A/NVtPYbcgSxysMDCJ8cWy9n8ssD9/PMdETISAEhEA6EYgL4bvRedu+3l9n67+ts46bP9pe2DNXSjps/rZqt69WH6z337f77LmbPXfs+ytttv1Ek9tsBeWdNn9HjU1eW2lnr7W5PdbfJuJ3Q0uPzdleY5+u6rUVP99cZWevt1lX950RN0/P7bu2+mCDnb7Wa99henGTx+ELLbbndLN13Rx5fiMuuC9ia/st23uy0cpqupJNmrb4wa4T4UsechG+YTCj88/eVm1vLy6xXSebbPepZpu6otRenFPkpAhyFPgQn5CzS4U37H+9eskOnGuxfWdbbNGOavtoSYl9+0OzDyDeie+akz8GinvpE56Rz18m5dnmw3XWfeuuky7iQsA+WFZqK/bV2c3u3kEscfDx/BLyScw7hA332XPrrl0p7rC5myrsWkn7TwjnMHBlVHAYGET4MqpZRi2MCN+ooVNCISAEhEAkCMSF8NU399hTMwvtV29fsZKqrntE7UbHbVu4o9r+6/XLtv1Yo32xsdLW7a91UoVt1NR2y77aXmWr9tXa95dbbcqKMvtqZ7Ud+KHFvr/cYgdON93LK9hSd+7ctZKqTrv/o2u25XiT233L99Tae4uKvQx3DmDrJdyhMRKfdd68Y8/PKba1B3rlIV9uFvrnb6+2qWsrrOXGrXu240B5eH59AXx3G7WvXB4H+zOx3PC9qr7bpq0sdaIa8s60z2DXifAl3zIifMNgFgjf3G1V1tja44MC3q/X5xTa2n21TuAgZ3QYPvHiXSy4Yf/x2mWPy++mth5btb/OJnxdaqU1XcZKEis2dG7IHIMBnRqixUoUafj+0MQ823iwzto6b3t84lE2hG/Znlpra791r4zQqYmDzB1dvflQFnLxvJMyu3vzJn9uyiI+4dzI1d512y4UtNvsDSJ8w6iHgtOIgAhfGsFWUUJACAiBARCIG+H764TrTuiwb7CF8ss77fW5RfbA+1dtz8km++5cs729oNiabtxy26yk5qa9OqfIvjneYLM3VtrGQ/VOArHVOm/etua2W55PsKGC7QThe+CT61bV2O12FvG2H2uwD5aUWFFlp9tZwe7D5sLmc5vx1l1fvMc2wysJ4Vu5t9ZaO267jUhcPG94JCevqbC65h63Eymf9OSDDNiT5EF8nmOTdvf8+Dw4DgjDWUA8bp4TD9mwT3Fo4MnM1EuEb/QtI8I3DHZ0CDx8C7ZX+yoLnYjOteVQnf1rZoEdPtdic7dUWXNbj63YW2sHf2i2H6632f95/bLHC9lfLGy36avKPIwVoj9/et1++dYVe2V2kdU2drvnbvamSrvv/av28pwiK6jotAcn5NmMNeX2izev2B8+umZr99daRd1NJ3yvzy+2v0/Nt/96+4rNWld+r8MfOd9sz0wv8Of//rLQ8so6nNiRlri/efeqzVhbYax+Ld1bZxNWlNmT0wts1d5au1Rww+v0u/ev2kuzCuyTpSXy8IUG1Oe4IyDCN+5NIAGEgBDIcQTiRvjmbKq0v3x8ze03SNG+0032wqwCe2t+ke0/02x4/B6dnG/n82846eEoy9uLSpwIzt5QbtdKOn7S4tiAHNHBdqpv6rYtRxps5/FGu17Sbn/69LrVNvc4cWSxHTtu7sYKO36xxfPDZvvlm1fs2ekFVtfUbc03btlXO6rsgY+u2bMzC+zE5VZ7bnaxTV1VZv/z7lX71TtXbeHWKvfqzdtWZU9+lu/2GrbclJVlThCp07Yj9fbnj6+5jff+0l7HAkRwwtdl9t9vX/GbfCB7O0822+sLiu3F2UU2f1uV26TYoZSHI+O1OYUifD9p8ez5IcI3TFsORvggVgwSeO/2nWy01Xtq7Oi5Zv/Nls7+hK+wotO+XF9up660+qoKHb26sdvemV/kRG79oXqbuLrCBwBWbiCVD07Ms+dn5vve8B3HGuyJ6QV28nKrE743FxRbaXWXlVR32mMTr9uhM012obDdnpyWZ4fP9Q5iC7ZW2fzNldbY0uOrP2xVuFzcYZ8sKbGDZ5tt7vYae3xKnl0qancC+PCn123/qUZfTVp9oM5e+LJQhG8Y/VBw+hAQ4Usf1ipJCAgBITAQAnEjfHjZnp9ZYN+ebvKFdbZrLt1Z5Qva355tdg/Z3E2VtnhblbW037Llu6p9Qf/4pVZbsKVywPNsHV237eCZJrf7sL1YtMfDx0L+PcJ3565V1t+0ZTur7Nszzb5ziu2YeADfX1TsO8T2n26yf88t9t1j2H3szMLD98LnBf4uCGT+0yfXfdfYnK29hA/nQU3DTXt+VqFt+67esEUf/LQ3Du+WmLy63LesUlZ75223Hy8WtbutByndeKTR7n//qh250OJk97lZhbbpUJ2fDUSeRyZetzPy8A2k+rF/JsI3TBP2J3xh6+WyXdX26fIyJ2Z40VZ8U+3eNIhaIuELWz1PXmm1mWvK7EL+Ddv9faPNXFNuj03Nt9+8c8VW7anxl8BAHPecaLDiqk5jQMHDR0dk22VRVZc9/3mBEzK2dH69r87jMEB8ta3Klu2stu1H6n1lirSUe+Zaq32wuNi3MKzaW2NTVpTaQxPyvEN/c6LRPZfT1pT7IIjMD358zd371Pl8Qbt9sZ7VLZ3hG0ZFFJwmBET40gS0ihECQkAIDIJAnAjf0zMLbdeJRjtwutFemV1okLj3FpfY95danPAd/KHFz7gdu9DiC+dFlV32zPR8K67sdNKDDXS9tOMn5+DCLi+2P67ZW2Pn8tqs+9YdK63+kfBhB3LjCfxiXbmdudrmu79mrCmzv03Nt1+/c8VtNhbhWWSHuOWXdVhj6y0nfGv217r3rrapx56alu/OhDlbqmwSToG+LaWUjfdwyY4qvymPrZoQUUgtdum6A7VeT7aaPvDxNTuf12Ybvmuwl+YU+TbTsuoue3p6vlEOWzvZQTZpeakI3yC6H/fHInzDtOBPCB9n5m7e8Y700hcFduRcs3ew83k3bOmOKuOTDpdI+OiEdKKlu6pt/tYqHxyemVngZ/NYgZn8damv9OBq54ZgcXYOr9ufP82zLYfrfEtmac1Ne3Ne0T3Ct3BHjZ/hw3v33uJi23Ws3vadarJX5hZZVUO3byk4cKbJJiwrscM/NPvB5WMXmq2kusumriyz3X2E77O1FU42GWz+8MFVJ3/sI2eQ/FhbOofRDgWnEwERvnSirbKEgBAQAj9HIFaE7/NC23uqyXdOPT45z95fXGKbD9U5iePICoQPAscZuT99fM2mrym3dxeXuC2G3TZjbbmt+7bOd25hyzW19lhl3U23864Wt9vK3dV24mKLe9ISCR/eOl6wx1EZ8rhe2m7vfFVi87ZWefpZ6yrck8hiPk4EdoBBLg+fb7n30hYW7htae5yosnsMwvfR12W+FZSwqavLbO2+Gr+nrCrzbZ949HiL/MKtle6lhOTiZMBh8OyMgnuE75V5Re5YqG64af+Ylu9vKeUM38mrbfbqnEI7c7X15w2fIU90hm/0DSHCNwx2dNx5O2vstQUltvZQg63+tt69c0u/qfE94byyd9PBOttzotFXU9izfbnohp+723Ks0TYdbbTF26tt6c5qH2QYLGauq7BFO2ts25EG+9eMfFuzt9YKKrts24km23Co3sN5bfDDk/Ntx9F6Xykqr7tp7y4stkNnm+yTFWX21sJi23C4wRburLEXZhdZRV2XH7j9ZFmpzdlc5as4k1eW2fajDXalqN3eWlBsK/fX+QDEHm3IIfWasb73PB/72N9YWOLbAdYcrPf97ZSRx+oWb4SJ4RUGBr2lM4aNN4DIInwDgKJHQkAICIE0IhAXwsdL9v71ZZGxTREyw79neHRSnh+FgWBNWlHq72CA8OHdgiT99p0rvhiOyQMZO3qx1aatKvM3rW8+2mgr99T4Wzoram/6i2D2ft9o6w/UGdss8QqypXPFgXq3+5bsrPYjNbzEj6M/i3dU26xNvS+BeXFWgX29q9pttq3H++y+teV25GKrvTSv2GVFZo7+8IIZFuvnbav2c34ct1m6p9ZenV9s10o7/H55bpHN3VZtqw7U2YfLSm378UY/PsSurrUH623F7hp7eMJ1J3+bjzXamwtLfKsqdZy4qtw+WlbqWz0hwf/6vMDP9aVRpZIqKth1ektnUrB5ZBG+YTBjVefk9RtOjmZvq7F5O2rsxKXec3iQQd74xP9M6ei8bccutfpv/g/fV7tr/X+y8P9bth5t8P3YFMVAwpZNtmSu/bbedh1v9Ffgnitot/k7a/zfLfC/W1ip2fBdo3dmCBd7y/efbnY3/MFzLbbpuwZbtrfO01wsvOGkjG0FHDCG2PGiGTo9gx51YGvBgp01TihZ8YKoUq9jl1t9ayhlsAed+i3cVeNvl2KPN/9bhgExjlcYGET44th6P5dZhO/nmOiJEBACQiCdCMSF8OEF2/59kxVWdroNhMftm5NNbs+wlZIX7hVX9/6/OeyygvIOf5Ed9luweXpu3bELBTfc1uKdByygY1Ph/fvufItvrzx1rc09ZNhKK7+td9uL/8fH4n15bZfbfLSPbwH9tt7tvh3HGv3FKBA24mIP8n4G8th1qtkuF7f7zi5eyMKbRPm/eHjf1nxb73FJc/b6DY+DHcp3ns3dUeP/PszfKH/zjp2+2ub23LajDW4zcvbvSmmn/z8/dphRT+RavLvWbUnOO3KusarhZjpVKqmygl0nwpcUbB5ZhG8YzBgIIEx0KrZ3shLEbzoKN9swIUt855OwEJ9X3RKff6ZJGFeIxzMP68vvXpq+V+163n158T3xd2Jc5OL3vTh9/94BWXl+5y53r5zEDfIT5uF9spMeGQlHbuL6PyKl7GEwytTgMDCI8GVqCyUnlwhfcngpthAQAkIgagTiQvju3DG3YbB/3H7qs9XAI9h1fWZZr13WZ+th0yVe/Ha7qO9fWWEnEYXnfvfZdzwLdiL2F995RtlcxOVZuPmNDRbsrWCT8Tyk87L65Pa4ffYZaYiXaPfdszcpty+MNJQX7L4gd69N2mvbBbmIQ1zSkD5Tr2DXifAl30IifMljphQxQSAMDCJ8MWmwYcQU4RsGIAULASEgBFKMQFwIX4phUPbjhECw60T4km8AEb7kMVOKmCAQBgYRvpg02DBiivANA5CChYAQEAIpRkCEL8UAK/shEQh2nQjfkDANGCjCNyAsepgNCISBQYQvG1rTTIQvO9pRtRACQiC+CIjwxbftskHyYNeJ8CXfmiJ8yWOmFDFBIAwMInwxabBhxBThGwYgBQsBISAEUoyACF+KAVb2QyIQ7DoRviFhGjBQhG9AWPQwGxAIA4MIXza0pjx82dGKqoUQEAJxRkCEL86tF3/Zg10nwpd8W4rwJY+ZUsQEgTAwiPDFpMGGEVMevmEAUrAQEAJCIMUIiPClGGBlPyQCwa4T4RsSpgEDRfgGhEUPswGBMDCI8GVDa8rDlx2tqFoIASEQZwRE+OLcevGXPdh1InzJt6UIX/KYKUVMEAgDgwhfTBpsGDHl4RsGIAULASEgBFKMgAhfigFW9kMiEOw6Eb4hYRowMC2Eb/v27dbT0+Nv2cNo0y0M0qED6By6J8I3YN+P3UMRvtg1mQQWAkIgyxAIhE92ney4dNhx/csIdp0IX/IDS8oJ34oVK2zt2rV28OBB3cIg7TqA7q1evdqYpHTFGwERvni3n6QXAkIg/ggwlzKnyq6TTTtedj26B7fQlRwCKSd8DAxr1qzxwWHdunWmWxikSwcYFILu3blzJ7meodgZh4AIX8Y1iQQSAkIgxxBgLk2cW9M1n6sc2Y7oQNA9uIWu5BBIOeHr6Ogw3cJgPHWgq6vL2PetK94IiPDFu/0kvRAQAvFHgLmUOXU853SVLZsSHdCVHAIpJ3ysBukWBuOpAyJ7yQ0KmRpbhC9TW0ZyCQEhkEsIMKeO55yusmVTogO6kkMg5YQvOXEUWwgIASEwMAIifAPjoqdCQAgIASEgBISAEBgKARG+odBRmBAQAhmDgAhfxjSFBBECQkAICAEhIARihIAIX4waS6IKgVxGQIQvl1tfdRcCQkAICAEhIARGi4AI32iRUzohIATSioAIX1rhVmFCQAgIASEgBIRAliAgwpclDalqCIFsR0CEL9tbWPUTAkJACAgBISAEUoGACF8qUFWeQkAIRI6ACF/kkCpDISAEhIAQEAJCIAcQEOHLgUZWFYVANiAgwpcNrag6CAEhIASEgBAQAulGQIQv3YirPCEgBEaFgAjfqGBTIiEgBISAEBACQiDHERDhy3EFUPWFQFwQEOGLS0tJTiEgBISAEBACQiCTEBDhy6TWkCxCQAgMioAI36DQKEAICAEhIASEgBAQAoMiIMI3KDQKEAJCIJMQEOHLpNaQLEJACAgBISAEhEBcEBDhi0tLSU4hkOMIiPDluAKo+kJACAgBISAEhMCoEBDhGxVsSiQEhEC6ERDhSzfiKk8ICAEhIASEgBDIBgRE+LKhFVUHIZADCIjw5UAjq4pCQAgIASEgBIRA5AiI8EUOafZnePfuXdMtDNKtA3EjfOnGR+WpT6IDuoSAEBACQkAI9EdAhK8/Ivo9KAJ37tyx27dvG4Z3T0+PbmGQVh24efOmHThwwNauXWsdHR2GPo72wjBGhzdt2uQ338diLCMLMiEbMiKr+ojGiHTrAGMzY/RY+sZo+5TSCQEhIASEQOYiIMKXuW2TcZJhSOzYscMN5I0bN94zloPRrM9e8iAcUoMDOgeh4u7s7BwTQYua8JEfMgX51D9SowPqW4PjGnSOMZqxWpcQEAJCQAgIgYCACF9AQp9DIoBBy+oxBteaNWtsw4YNInx93iEZoYMboanAZvPmze5BG4tHLhWED68esqWizsozvToWR7wZkxmbkZ2xeiz9Y8jJQIFCQAgIASEQOwRE+GLXZOMjcDCQWUXGsOjq6tKWNW3pTLsOJG5ZG4tBG/Q5GPZj3dJJftryrC2c6d7CmVgeYzJjM2P0WPV5fGYZlSoEhIAQEAKpQkCEL1XIZlm+gxnIPNctDNKpA1F0rcH0Oaq804mHylL/S6U+R9EnlIcQEAJCQAiMLwIifOOLf2xKl0ERm6aSoCNAQPo8ApAUJTYISJ9j01QSVAgIASEwLgiI8I0L7PErVAZF/NpMEg+OgPR5cGwUEj8EpM/xazNJLASEgBBIJwIifOlEO8ZlyaCIceNJ9J8hIH3+GSR6EGMEpM8xbjyJLgSEgBBIAwIifGkAORuKkEGRDa2oOgQEpM8BCX1mAwLS52xoRdVBCAgBIZA6BET4UodtVuUsgyKrmjPnKyN9znkVyCoApM9Z1ZyqjBAQAkIgcgRE+CKHNDszlEGRne2aq7WSPudqy2dnvaXP2dmuqpUQEAJCICoERPiiQjLL85FBkeUNnGPVkz7nWINneXWlz1newKqeEBACQmCMCIjwjRHAXEkugyJXWjo36il9zo12zpVaSp9zpaVVTyEgBITA6BAQ4RsdbjmXSgZFzjV5VldY+pzVzZtzlZM+51yTq8JCQAgIgaQQEOFLCq7cjSyDInfbPhtrLn3OxlbN3TpJn3O37VVzISAEhMBIEBDhGwlKORzn1q1bdvv2bRvMoCCMOLqEQBwQkD7HoZUk40gRkD6PFCnFEwJCQAjkNgIifLnd/kPWvrW11c6dO2cFBQXW1dVlPT09tmnTJr/5zjPCiENcXUIgkxGQPmdy60i2ZBGQPieLmOILASEgBHIXARG+3G37YWve2Nho+/fvt927d1t9fb11d3ffI3x85xlhxCGuLiGQyQhInzO5dSRbsghIn5NFTPGFgBAQArmLgAhf7rb9sDXHi3f58mXbvHmze/Fu3Lhxj/DxHc8eYcQhri4hkMkISJ8zuXUkW7IISJ+TRUzxhYAQEAK5i4AIX+62/bA159xeQ0OD7du3z7Zu3erfN27caNw85xlhfCeuLiGQyQhInzO5dSRbsghIn5NFTPGFgBAQArmLgAhf7rb9iGqOUXHhwgVbt26dnTlzxtauXes333l28eJFkb0RIalImYCA9DkTWkEyRIWA9DkqJJWPEBACQiC7ERDhy+72jaR24azeli1bbOXKlX6zlTOc7YukEGUiBNKEgPQ5TUCrmLQgIH1OC8wqRAgIASEQawRE+GLdfOkRnn+9cP78effoff3118aNdw/PH2G6hECcEJA+x6m1JOtwCEifh0NI4UJACAgBISDCJx0YFgG2DTU1NdmuXbtsxYoVfvOdZ4TpEgJxQkD6HKfWkqzDISB9Hg4hhQsBISAEhIAIn3RgRAhgVPBWztWrV/uNx09kb0TQKVIGIiB9zsBGkUijRkD6PGrolFAICAEhkBMIiPDlRDOPvZIYFPyj3x07dtjOnTv9uwjf2HFVDuODgPR5fHBXqalBQPqcGlyVqxAQAkIgWxAQ4cuWlkxDPe7cuWNXrlzxm++6hECcEZA+x7n1JHt/BKTP/RHRbyEgBISAEAgIiPAFJPQ5LAKsInd3d/st796wcClChiMgfc7wBpJ4SSEgfU4KLkUWAkJACOQUAjlF+JgQWQXlrWa6hcF46QA6GAVhlj5Lh8dLhxPLlT5LDxP1Ie7fo9LnnLIkVVkhIAQyHoGcInwM5GvWrLFVq1bpFgbjpgPoILo41kv6rH6cCWOZ9Fl6mAl6GJUMUenzWMd3pRcCQkAIRIlAThE+Vh6ZFHjTJC8f0S0M0q0D6B46iC6O9ZI+S3/Trb/9y5M+Swf760Scf0epz2Md35VeCAgBIRAlAjlJ+JiQMJbZEqdbGKRLB9A5dC9qwid9lg6nS4cTy5E+S+8S9SHu36PW5ygNNeUlBISAEBgrAjlL+JicdAmBdCKAzqWK8Emf09mSKgsEpM/Sg2xCIGp9ziZsVBchIATij4AIX/zbUDWICQJRGxSsSOMthESK8MVECbJITOlzFjWmqhL5AoYgFQJCQAhkEgIifJnUGpIlqxGQgZzVzZtzlZM+51yTZ3WFo9bnrAZLlRMCQiB2CIjwxa7JJHBcEYjaoJCHL66akB1yS5+zox1Vi14EotZn4SoEhIAQyCQERPgyqTUkS1YjELVBIcKX1eqS8ZWTPmd881VE4gAAIABJREFUE0nAJBCIWp+TKFpRhYAQEAIpR0CEL+UQqwAh0ItA1AaFCJ80azwRkD6PJ/oqO2oEotbnqOVTfkJACAiBsSAgwjcW9JRWCCSBQNQGhQhfEuArauQISJ8jh1QZjiMCUevzOFZFRQsBISAEfoaACN/PINEDIZAaBKI2KET4UtNOynVkCEifR4aTYsUDgaj1OR61lpRCQAjkCgIifLnS0qrnuCMQtUEhwjfuTZrTAkifc7r5s67yUetz1gGkCgkBIRBrBET4Yt18Ej5OCERtUIjwxan1s09W6XP2tWku1yhqfc5lLFV3ISAEMg8BEb7MaxNJlKUIRG1QiPBlqaLEpFrS55g0lMQcEQJR6/OIClUkISAEhECaEBDhSxPQKkYIRG1QiPBJp8YTAenzeKKvsqNGIGp9jlo+5ScEhIAQGAsCInxjQU9phUASCERtUIjwJQG+okaOgPQ5ckiV4TgiELU+j2NVVLQQEAJC4GcIiPD9DBI9EAKpQSBqg0KELzXtpFxHhoD0eWQ4KVY8EIhan+NRa0kpBIRAriAgwpcrLa16jjsCURsUInzj3qQ5LYD0OaebP+sqH7U+Zx1AqpAQEAKxRkCEL9bNJ+HjhEDUBoUIX5xaP/tklT5nX5vmco2i1udcxlJ1FwJCIPMQEOHLvDaRRFmKQNQGhQhflipKTKolfY5JQ0nMESEQtT6PqFBFEgJCQAikCQERvjQBrWKEQNQGhQifdGo8EZA+jyf6KjtqBKLW56jlU35CQAgIgbEgIMI3FvSUVggkgUDUBoUIXxLgK2rkCEifI4dUGY4jAlHr8zhWRUULASEgBH6GgAjfzyDRAyGQGgSiNihE+FLTTsp1ZAhIn0eGk2LFA4Go9TketZaUQkAI5AoCIny50tKq57gjELVBIcI37k2a0wJIn3O6+bOu8lHrc9YBpAoJASEQawRE+GLdfBI+TghEbVCI8MWp9bNPVulz9rVpLtcoan3OZSxVdyEgBDIPARG+zGsTSZSlCERtUIjwZamixKRa0ueYNJTEHBECUevziApVJCEgBIRAmhAQ4UsT0CpGCERtUIjwSafGEwHp83iir7KjRiBqfY5aPuUnBISAEBgLAiJ8Y0FPaYVAEghEbVCI8CUBvqJGjoD0OXJIleE4IhC1Po9jVVS0EBACQuBnCIjw/QwSPRACqUEgaoNChC817aRcR4aA9HlkOClWPBCIWp/jUWtJKQSEQK4gIMKXKy2teo47AlEbFCJ8496kOS2A9Dmnmz/rKh+1PmcdQKqQEBACsUZAhC/WzSfh44RA1AaFCF+cWj/7ZJU+Z1+b5nKNotbnXMZSdRcCQiDzEBDhy7w2kURZikDUBoUIX5YqSkyqJX2OSUNJzBEhELU+j6hQRRICQkAIpAkBEb4UA80kgmF+69Yt6+npsTt37qSsxPb2dtu/f7999913YyojyIy8XV1d1t3dnXLZxyTwKBPTFrQL9U3HFbVBkQmEjzqBIzqCrgR94VlUuJIPN/XlHihfnlFm0NmbN2/694HipqOtU1FGwCCdOjtUPZBnx44dtmrVKm+XoeKOJCwT9HkgOYNeIV+4qHuUYzr5hXLQ3aC/PMumi/qAWybWK2p9zqZ2U12EgBCIPwIifCluQ4yE/Px8mzhxom3cuNFaW1t/UiKTTJjs+Uy8Qthgn8QNYXxvaGiwmTNn2sKFCz2bEBY+Q97hd/gMz/nkGcb71atXbd68efbOO+/Ye++9Z3v37rXOzs5B8w15DfcZyhgoXpCjf9hgz4mXeA2Urv+zxN+XL192g7WlpWVAEpGYdxTfKTvbDGQMt7y8PJsyZYq99dZb9vbbb9vkyZPt4sWL90hAIuZ8D9dgzwlPDKOMmpoaW7t2rfelRMM7xIXoXb9+3ebMmXNPZ7/55pt7hmVifkGG/s8G+j2YrCHuYOGDPQ9lB7lDPkM9D3HAgTrSx8EgMU0oL52flJ9t+jwQfo2NjbZo0SL79ttv72FO3U+fPm0ff/yx9R8/QnuFvMLv8Bmeh0+e07aVlZW2fPly1993333X1qxZ42M68ULa8DnQsxDW/3OouIkyDJRuoLQhzWBh/fNJ/F1eXm47d+60kpKSe1gm5jee35EzSn0ez7qobCEgBIRAfwRE+PojEvHvGzdu2Lp16+zvf/+7ffrpp26wUgSTC0YbhiqruZApiBYTf7iD14RwvhM3xA8GX1hl5nd9ff1PCB9h/b0u5E1eYRWZOMgSZCLs8OHD9vLLL9uWLVusuLjYvv/+e9u3b5+1tbW5bEEu8kYeLvIJeSZ+EjeUF2QOdUiMR3ou5EuUm7ikC89JE+pEGM8Dlon5hbL6y4UspONesmSJG2wYWsQLOLggKfhD/lEaFNQR7wp5plr2weBABgzfxx57zBcFIH8Yqm+88YZdu3bNk4X2pH1CmwU9pC3RfZ5TB+7EMNIQfuLECXv11Vf9kzYM9eWTOEeOHLFJkya5MckCC4Rz69atnhcyEifoDfIEfUrUT8L5TTifpCEtcZGP34k3YVwhr5A/cUMYeYWy+UwMC3KFPBPLCuWHMNJxg+1f//pXx4S8Aw6DtU8qn1N2tunzQHg1NTXZrFmzfCED8kd701afffaZkzN2VtA24TntQnhoT36jG7Ql34kXLjDk2ZUrV+zZZ5+1pUuXWlFRkZ07d877U0VFhbcx+SfqF+nIP+hH4meiTpM3F5+JcYIs5BP0l2dhHgqy80l+lJ0YFtKFsJAfZYU0oTziBP2FNL/55pv2ww8/3MMsYDHen9QpSn0e7/qofCEgBIRAIgIifIloRPydCQTPBN4PvGUQPia8YBjs3r3bXnzxRTfi/vznP9sHH3xgBQUFPhHyiVfwL3/5i33yySf24YcfutGBQf3RRx8Z3gsmccjK448/7ts46+rq7hE+wsj/mWeesQcffNCNEzyAGC94AMmPe8WKFU7kwgReXV1tzz//vJPUjo4ORyQYFkzarNBOnz7dHnroIXv66adt+/bthsGDgQ1JnD9/vqd/+OGHfbV627Zt9o9//MMJAEYNdUd+PDFgQj6ku3Tpkhs2kNbVq1d7nQgjHnLjGf3666/dqMewf/TRR/07hBq5ysrKvD7UFbwwmpAbebgxzh555BEPgxBQxu9+9zv7z//8T/vTn/7kuINBKq+oDQrqlwmE79SpU05CMFIxDMEXvYakYfShq+gKbbNhwwbXW7wiCxYs8PZ/6qmn3Pvd3NzsYehA0DF046uvvnI9/p//+R/7/e9/73nQ5lxggNcLTzR5Y5SCc9BZ+gFGM15Hyn/hhRcMnaQfoMt/+9vfvM/gUaEfoWObN2924xvSiieCstDV1157zQ1y9BKjNegzCyHLli3zupAf+lZaWurpZs+ebdxTp051/eMTfUY+FlPQVeSiL6LDlEU9Xn/99Xtloe/Igc4+8MADrrPoPwsxqdbZofpDNurzQPVFhw8dOuQebHScNkJ3nnzySR+7WWxAr2hPwlhomDZtmusAZGfXrl2uG+jX+vXrLYyrlAWGjG2MuegJuhT0NxCl2tpaX5xi/GJchRTSf9AxdIMbzzpzBeMl/Y7+BoFk8Y788Byie4z96A73sWPHXA8pn7mCOqCL5EefofwDBw7cG9fRbfpZmKMYe+mnpPn3v/9tZ8+e9fGdOeGLL77w+QqZyZf5Abnuv/9++8UvfmF/+MMfPG/KyJQran3OlHpJDiEgBIQACIjwpUgPwqTNJMhkeOHCBTcamdQhZkx0GJ5//OMffVLGoGN7EBM2ky3kEMLHZMz2SowFjFaIEYYnRgXGBZM+hIWzexgGYUsnhi5bFnlGHIxUyAEEFGMEQ5p8MTzDRRqMEwga8oQw6gJRY3UbLwt1wLA+c+aMEzkM+pMnTxqGe9jihDFP3TA0MBDYFko6jHny+M1vfmPnz593LKgX9YVsYtxj/FZVVXndwQ6yRtnkiSGDR4m64TVlRZYwsMIQwhADgxkzZngeGCSQBEgBYZSNTNQHIx65KJc6pvqK2qCgfTKF8GGIYviyAEE7gDPED4MRUoOhjL5hHLI9GIOVZxjTtCHtzKo/+k5aFkmIQ19A5zFOX3nlFdcz9D5cpN+zZ48TJDyK6DBX6H/kQflffvml68nRo0ftpZdecgOexRMIFFtRkRvd4/fKlSvdeKefobPIRJ/BSD5+/LjrEfqGbpGOPkue9Gv0FvLIM4x3jGz6LmURznc8/qQjb7zMpOE7OgvphTziMQUP9Jy+ShqIAtgiB/VOh84GnAf6zEZ9Hqie9DN0mXFp06ZN3g4QJEgaJJ1FPMZMxjnahbZiHCwsLHRdhxgSDx2AyKP/4WIcCkSI/oH+hnblE91DL+gP6BNjFXrJFlP0HQJGvyBvjgywiAVhQ9fQQcIZ/xnrfvvb3zqxY+xevHixPfHEEy4X8rCAwVzF4t2ECRNcTr4zttO36aPkQ36QRuYV9J+ymFMomzyQg63X9HNIMmVBRsGDulEWfZ2+T91DXQMe4/kZtT6PZ11UthAQAkKgPwIifP0Rieg3kxmTHQYaEyiGG940Jj9WO/GEQNogSayUBkJDXCZFPHOszhIvGJxMrqRlgme7JYYvq8oQK7ZcBsIHMcJIwUDAsMQwwFuB4YtxiRHKjXyJEy4TMt4FDAEMC+oQLr5jdLNCi/EDYWWih1xxQzhJx/kMDAUMfVZ3IYIYHxgtGAjki/x4+cgDGSCZGPnUGzlZBScP6oeBhZFMHfCcQA6pJ8Yv2GGkgwlGCQQao4lnGBgYYBjqkEnygmxiOPGM3+T3/vvvez1CPVP5GbVBkUmEj7aGiEDCaUPaBLwhWrQ1ekDbsNoP7rQ74SwsQNj+9a9/uc4cPHjwno6hj+gdbYVRjKGLN5Hn4SIf+hGGNMYmmISL7+gNngkWCdA3ykQ3Pv/8cydUeBroS/RB+hD9Dj3ndyB1kDD6C+VTNkY9adAd5EI/0VPkRG/RX+LiAUTfKIv+TThGMXmxWAJJxDgGF4g7ixn0FcYM6kNZ9F/6LX0aryRkkC2d5DXeVzbq80CYooPoACSL8Qcix1g2d+5cX5RgrEPvGRcZr9l2i86jj4z39AfCIFToDPofxl3yhjDed9993hf4nXix2BHmAvSOcY/8WQRg8YLFCvLDa4xOkQ/9iYUOPNXoEWVD/tBJ9AndQTb6K4SO8Zsxkb5B+RA1iCNxGM8htvRT+g/xwIAFTBZH0Fv6GPkgC/0B+ditwlxDWegzYzV9lT4G4WOxL9OuqPU50+oneYSAEMhtBET4UtT+GJt4J1jdxbDD0GPih5iwGsqEDEFhMmcSx5jDqIPwYUxiRIZzDsFTAOELHj4MTCbggQgfBgCkiHwwNjE6WHHF0GUShnxRVv8LAxNjAeMFj1ii8cF3JnW8ZRil1A8jFqMHA5YVbwgf5I2JHSMGgwIDHUMCoyIQPsgdRgPGAEYMRgAYgQuflIPhlCgPBgYykw/lUgZGBCvVwUDBMAFnDA+2FLEiTZmkIS+MIhG+/q0+tt/oQdjSib5C9DDo0D10k3ZGD2hz2gUPAQsfkBzIIKSKdsN4RA8gb0HH0DmMMNpuMMKHnrBQgGGLEYk84SId5A19hnzxm76GTOgFBjiLJZQJUWPRgm1wlMVv+hvxAuGjDPJHb9FzPHl84o2j35A/8qC/1Bcs0DfOf9G/SYd+Uj46yzZuiC7P6KNh8QFSx1hB/emvLFiI8IVWHZ9P9BAPNu2EB49xit+0N8QrjJn8DoQPnWOMYqtlaGP6AItqQU9pYxZDWEiDsIXnoZaE4T2kb6FfjJfMG2yZZowlv6Ab6DP50I+YM+iD6CzEjXGavseCG/lA4FikYcylD+JhJk2QB+LImIt+U9dA3gLhYzGSOP/85z/vjbnMA8gJPug4cxA6jz6L8IUW1acQEAJCYHwQEOFLEe5MqkyWTIhMlhAUJlSMXFbsWWnF0OxP+DDuMAYxBDEcSIOnCqMYA5TVWrYW4cWCwGBsMPEyyQcPH9t3mJCZ7FmhhfiwIpxI+MKbPBOrHwxM0kGkkBFSCcEiDwwSjBcMbAxnDAkIKmeLkGMkhA8s8PBhWPMdQ5gtlqyIYywgI8YJJBEvC8QNI4u4gfCRJhA+cAATcGbbEemQm+2byAi5hfTSHgMRPgxriDmGVlh1T8Qkyu9RryAjc6Zs6cTrBOGCKHGGB32FbGHsYVCyUAFxoq1oG56jA7Q5Xj28WxCuoGMQKPJiYYQFBs6rQaLIE6M3tBUY4HGhT7HQQVsSjlecfsNZTnSDvkZfwhsBscLQxeueSPjw1AxF+AhDdvSI/gOZIw/kQk+RFf2j/xGGHmIEE5ZI+DCawQM5WLjBU05cCDI6OxTho6+ANdikQ2eH0v9s1Oeh6hv0jLGUtqPNGFcYB1mgg4AxBuNNY6s4us52dLxdtC06wCdxwgWG9AuIG3qBvgb9RdcgXYyX9POwE4QFBPSLsJESPmSCOLKVkrGT+YI+B0lkrGdOob+gf5TFQiV6zhxGfSGKkLdA+FiwgcSxeEP/5IZEIuNwhO+5557zRaLx1t/QBuEzan0O+epTCAgBIZAJCIjwpagVMARYUWVyhkiFC6M2nENjBXYgwod3DcOOlVWMR0gNEzCGMxMr28AgQRiSkCPOw0HCEgkfEzseCAwDiCMG+HCEjwkPuTGqMVIgS5SNIY0RT/5M8MiBwYvnjPIxhNgyN1LChwHBNjvyIj11wUOIQYHxj8yUCcGDCLKSjrEUykwkfJyBwpDHyMDoBy8MGAgoxsdQhI860RYYQ9QtsZ1Ce0X5GbVBkWmEDwMU/cFQxaMB9njL0FMMX7bEoU/oN14wFjVoY9oVgxnCBWnixSkYoOgA/QBdxhjlGQsiGKmUA57ceFVYJKH90Unan4UVSB3EiE/C0DXCKRPDmjxHSvjQSTyVkDHywNDGaMZ4RmeRDT1CZozi4P3he3/Ch9eQerLlDt1HVjBgbEBe6jyYh4960nfQe+pA/cfrykZ9HgpL2ox2whtNO0PUGDP4xKMF8Uf3gjcP/WJBgHGYcMIY81h0SLzIA28gJBI9o49QDuM8bQzp4jnP0DG+s1ACoRwp4cODh/4iN/mzvRM9g1ziiUYngx4yT1Amuk0/7U/4KJ9FCuKg9+RN3fjN2MyW5sE8fCzosK2bxUtwYMzPlCtqfc6UekkOISAEhAAIiPClSA+YxDHO+htleADwvuGJYEUUwxDjlYmXCZCJHO8EBIQVY7xWxGESZrLHuCUMQsNkjKcAskR+TNBM3hgPGI4YyoSxLYgbQ5nnxOlvdAQYggFNOIYs6akHK9PICLkiH8pGPl5GgPwQUeoVfrP6TXqeIzNlclM+hhGeQbYC4snBe4MxxcUKM6vHGNOUTV1IH/AhD75TJv9gHvLAdwwNyAVygRcGCc+JD0a0B/nghYKY8Du0BTJQfqqN56gNikwgfNSJNqat8QSDK+0D7rQr7cKCAGSO9kS/aWPi0k485xltic5gAKL/pA1tiach5EkeGNKUEy5kQK/wtKCrxOFGZ8EInWVBgvwoh76C55py0DP6IeVSPv2K/sVv+g/1QF6IG4Zq0H36E+mDXmHYUyb5ob+kIQxdQ/+Qn9+kC/pHvcAAueg7iR4j4lEv8gEf+iN5UCZxKQcdJ854XZTN+IRHCJzHemWCPg9VB+RDpyDm6CA6AgaMM4zzQb9oO4gNbUUcxjB0g0U5dAp9TLzIg7zJg7YlLv0CPUKvuYN+EYaeky9jFmURD91gPKOMoN/oNeHEYyEMckj/YLzjk/iUTVrKDn0HfaNM6sXiDeNqoj4zhvKbO/QH5gKwCVgQh/kInUde+h1hYIJM1IO8o9CbRCzH8j1qfR6LLEorBISAEIgaARG+qBGNID8mYCZfDGkmdoxfvCFMqkyacb4wAPBesKIc97ok2w5RGxSZbiAni0+mxkdP0dfgdctUOdMtl/Q53YiPvjy82uzaYDFD18AIRK3PA5eip0JACAiB8UFAhG98cB+yVAxMDvazpZPzDpzh4KA+q65MSnG+IHxsdWWbWyat7qYD06gNChG+dLRa7//6Q1/RW/RXVy8C0uf4aALbONlVgVdP18AIRK3PA5eip0JACAiB8UFAhG98cB+yVIxKtsOwHY5tX5wRYTti3MkelaYOnK3jzjXjOWqDQoRvyG4UWSB6GnQ2G/pgVMBIn6NCMvX5MJ+wlTTXdlUkg2zU+pxM2YorBISAEEg1AiJ8qUZ4FPkz8XBjaGLU88nvbLmoT7bVaSRtE7VBIcI3EtTHHif0RXRW148ISJ9/xCLTvwUd5lPXwAhErc8Dl6KnQkAICIHxQUCEb3xwV6k5iEDUBoUIXw4qUQZVWfqcQY0hUcaMQNT6PGaBlIEQEAJCIEIERPgiBFNZCYGhEIjaoBDhGwpthaUaAelzqhFW/ulEIGp9TqfsKksICAEhMBwCInzDIaRwIRARAlEbFCJ8ETWMshkVAtLnUcGmRBmKQNT6nKHVlFhCQAjkKAIifDna8Kp2+hGI2qAQ4Ut/G6rEHxGQPv+Ihb7FH4Go9Tn+iKgGQkAIZBMCInzZ1JqqS0YjELVBIcKX0c2d9cJJn7O+iXOqglHrc06Bp8oKASGQ8QiI8GV8E0nAbEEgaoNChC9bNCOe9ZA+x7PdJPXACEStzwOXoqdCQAgIgfFBQIRvfHBXqTmIQNQGhQhfDipRBlVZ+pxBjSFRxoxA1Po8ZoGUgRAQAkIgQgRE+CIEU1kJgaEQiNqgEOEbCm2FpRoB6XOqEVb+6UQgan1Op+wqSwgIASEwHAIifMMhpHAhEBECURsUInwRNYyyGRUC0udRwaZEGYpA1PqcodWUWEJACOQoAiJ8Odrwqnb6EYjaoBDhS38bqsQfEZA+/4iFvsUfgaj1Of6IqAZCQAhkEwIifNnUmqpLRiMQtUEhwpfRzZ31wkmfs76Jc6qCUetzToGnygoBIZDxCIjwZXwTScBsQSBqg0KEL1s0I571kD7Hs90k9cAIRK3PA5eip0JACAiB8UFAhG98cFepOYhA1AaFCF8OKlEGVVn6nEGNIVHGjEDU+jxmgZSBEBACQiBCBET4IgRzJFnduXPXbt2+a3fumN29O5IUP43zY/qRJSbW7du9ZSaWd+euuRy379wdlRw/lWrgX5RNmcicynIGLn3wp0EuZEqnXFEbFJlK+MC0q/uOdfbd3beSxzlRb9DVcA2mzyE8qk/q0EM/7Ssbeei31KvnVu/zxP4UVbmD5YM8Pm4kYDFY3HQ9zzZ9pj1p26C3N3vuDIk58WkX4qEXo9GNwfSZvNE98udOpa4xPrtO9yk75fGbevGZyrITdbW3zsyNvXe6yg0yRK3PIV99CgEhIAQyAQERvjS3Akbk/J01di7/hk/kyRafX95pO481WG1j94iSMmnuONpgu443+EQaEmE87jzZbJu+a7C29lspmdQpu7ntlh043WTn82/8pPwgRxSflJOMcUDcmsZuW/9tnRVWdqVMrv51i9qgyFTCV1HfbS/MKbbn5xT758z1FXap8IZ199zpD8mAv2kfDM3DPzTbpsMNbnSHiIQNpM8hPKrP2qZum7mpyqoau123MH63HW2wF+cW25dbqqyi7mZSOhfkQn6/w4MRfN7svmMrD9TbyattjssIkqQlSjbpM23ScuOWLdpVY8/N7tXdf88rtr0nG63z5u0B2xpicvpqq+sEuv7y/GJbtKPaymtHPqZQbnlNl731VamXH/g8z9GxNftTP0aduHrDVh2o8/LhfBW1XfbVjmp7ZUGJrdpXa01tPQPWfzglcz0PFRouct/iYF1Tt2POPHeHDNJ4Ra3PaRRdRQkBISAEhkVAhG9YiKKNgOGIIbH/TJMbsslOaWeutdm8TRVWUtU5IsGYwOdurLAFmyvd0xcS4XWZt6PGpq+rsIaW0U3oIa/BPikbYrrim2r7tq++g8Ud7XOMLozziSvK7UbHLRsJnhgSxVWdNnVVmf2Qd+MnuIxWjpGki9qgyFTCl1/ZZQ9PyrPvLrTYtbJOW7Ov1p6anm+nr7X16vwwjYSdB8lZu7/Wpq+tMHQ1XIPpcwiP6rO0usuemF5g1IXFkSkry2zyijI7ea3NrpZ22OGzTVZS3ZVUccje3nXblu+qtrzSjnvew6EyoeYdXbfto6/LbfvxRvciDRU/nWHZpM/oHGTjzcUltuZQg10r77QjF1vsrXlFNnNdhXXevPMT0kO7sHNi7/cN9u7CYrta1mln827YnE2VNmF5qV0r6fhJ/MHaBZ24Wtxuv3zzipcfOA7j2vXSDs8r1WPU1uNN9vHXZVbd0G1FFZ323JdFtmJ3jet+Xnmnbfuu3mUbrA4DPacep6602uZDdSNeUKPO9LulO6rszNW2US2IDiTLSJ9Frc8jLVfxhIAQEALpQECEL8UoM/ExkbFNBsMRg++52UW291ST9dy648/Dth0m//4X6UNaDIyTV1rty/XlVlTZ6QaFp719140PvoeyiMt3yvxyfYXN2VDhW3T4zY0BM3tbtU1dU+7eLjwqPEeGkC7EJS/Pu8878ZMy+8oOcUkb0mOoV9bdtGU7q2z/qV6Cm1i/gA1pfyI7ePXJeS+sDwfkxEvKc8rhN8bVQxPzrLGlx58HWVzOBOzDcz7BDwP+zPUbniZRrlR9j9qgyGTC9/dp+U6qUekbnbdt4bYq+3xtmX8P+kQ7BL3iM7F90M/Ve2tsyqpy6+jq3Vrn7dlPn4OeEJbYVzzvoM/9+mAoM5Tn+fbpCd95XlDRaY9NzXfCevxCi/1rRoH3E8+3b8squocOhjQhLMiB/gddJQ7xG1p77NU5RfbD9Tb3eA4kQ3jm+d2+ax2dt+2D5WW29SjeppF5SVOlw4n5ZpM+02ZO+BaV2LfnW32RgfZDD/4xJc9OX2l1vUjUFdpzz/cNNnVFqS9Q0F545T5YVmrL9tS6Z9Dj941X6Gri+Br0Bu/3f7x+2arrb7qOkC/3tZIMkcUyAAAYBUlEQVR2+2RpqZ262nYv/8TyQ/qgL+QddC88I054Rp4hfQjnc9PRRpe5vPamzdpQact2VVvzjVuu2+g3OkfaxDR89/r00/97Zdy+a+sP1Nr8zZWelnJDHv37TMiX8OKqLluyvcrJIvmn84pan9Mpu8oSAkJACAyHgAjfcAiNMZxJq7Smyz75usxXcZ/6LN9+9dYV2/19o/1wrdVe/rLQico3xxtsw8E6n1QTi2QyPHq+2R6fnGcPfHzNnpuZbx8vLTG2vOA1g+j819tX7LmZBb4Vp7L+pi3ZUW1/m5xnv373qrFd5/O15fbGnEJ7alq+/fa9qzZzbbkRD8L38uwie3Z6vv3XW1fs37MKnKC1ddy2b0402uNT8uw/37piz87It4uF7W6gMon/6p2r9pt3r9okXxW+afN21tjbi0rs71PzbeXeGl8lfumLAs/z75Ou2/sLi39G+DBC8HYev9hiz0zPt/9++4p9tLzMCso7bc/3jfanT6572Y98et3O57VZdcNN+3JDhb3weYE9POG6/fbdK/bd+WaX93+9etn+nxcv2t+m5NuqPTW+Kv7eomJ7dFKeXSnpsDV7a+yXb13xMl6dW2T5ZR0ifIlKFvF3vGKB8JE1Onwur82emJZv9S09vmULHfrFm1fsrcUl3oY/5LXZxOWl9rv3r9p/v3PVF0ZW7qmxJ6fk2dP0mbev2JKd1dbY2uP6/OacQnt1dqHr4YdflbjetHfetnX7a+2Bj655X0MH2S7X2n7Llu+u8Xz/7xuXbd623nxYCJm0vMSen1lgC7dW2ZXidntpdqHr3RNT8+yXb1y2S8Ud7iHfdLDOum/1ennQXW7qhacYjw76S18hT7auYkT/Y1q+PT4t337xxmWbvLLMZX9yap79vy9ddLnxHH2yoszeXVzi8facbPKt13/uk/+vk/Ps+8ut7rn+YJkIX8Rq+pPsaM9Ewgf5gJiwWLFoa6V7ndDHTYfrrbC8w75YX2GFFZ2250Qf4eu542SOtl9/sN7mbqp0j9mEr8t8vGR8nbWuwr217NJ44ctC18f526rsxMUW+9+vXvLxjT7x8MQ8O36pxQnfB4tL7NUvC33cRne3HK73PCj7/SUlPq79/r2rtmZ/rTFus1vjV+9e9ed/ndKrP9TrjUUl9unyUntwwnU7ebnVvt5dY+T34CfX7clpeU746KPPfF5oF4s7nBiCCRef4LDtSL2Pqeg589C14nbfBvrxV8X2+pxCe+iTa/bgx9ds36km232iwWX+/166ZPd/dN2+v9Jmf/zomr37VYmP85DcRduq7L4Prnm/wZNaVt3l47II309UUz+EgBAQApEgIMIXCYyDZ4IRunp/rX24vMxJFpP9XyZct90ne7dn7ThabxsO1PrWF86QEL+s9qYVVHVZXXOPT+AYgN+da/bvi3fW2Ovzi+x6WYdPtpDJC0UdbvyyfeZ03g0vizNzGLqszkLw/vLxNTdQzl5vsxdnFdjRCy1O+DBskamuuds+WVpi8zZV2pnrbW5kEwcDe/GOapuzscK3TmJQFFV12aHzLfb+omInnRDHJ6b2kkLkh2zN3lDhq8TfnWtxYwAPH3mV1Ny0wr66ITueE4hrx807TgCPXejNl1Xt1o5eI+PZGQW+BW7CijJ7b0mpr7pjLExcXmJNbbfsQkG7/fHj67599Fpph70yt8jmbKmy+uYe236k3kl1UVWny79gW5VNW1NuV4puyMM3uNqOKaQ/4WN1H5L9yKQ8q+3T6eLqLjt4rsW3Su483mizt1Y7oWOFH8MVPVq6q9pJ04WCG0ac9xYW2+Widpu5plef8dJWNXTb9NXl9uWmKo/zweJi31qH7qOD7y8udmMVXciv6LRtxxrtoyUldr6g3fvFw59cc88K24LRfXQdPcWwhmRi/E5dWepbOCEBwQgGIPrrO4tK3HuJR4TFirfmF/vZw/WHG+wPH1y1/aeb7EpRu/35k+tO3pCXRQuM7rKaLje0P1pW6t/x+t33wVVfBEEGiMO7X5VaQXmHvS/CNyadHC5xIuE7eL7VvVF4zNhOy4LRqr013r5bD9fZ8l1VdjH/hoclEj7ywCuIri7ZUeWLVDVN3ca2SHT9sUl5hreYRalNh+p9PIdIMVb/71cv+2JFVX23TVpZZh+tKPetns9/UWgLt1dbbVOP68Wv37lq59k6yjb9bVU+prHl87nPC/xcOPIyf5zJu2HT1lW4Z5gzea8tKLbJq3q3bZ691mq/f/+qE0oW/iavLnc9RCffWljsY3SinsP7jl1qtTfnFdl351u8f361vcrnHOaDd+YX2fu+6NLhZxinryn3c4wrd9d4H2QOulzaaf/5xmU/k8jLbVbtrfWtsGADBlP7tkxDZMmb7aDy8A2ntQoXAkJACIwcARG+kWM1qpgYgqv2VNueE42+AszkFrZ0ck6Jl5p8urTErpe0u5GBcTthZbm/CICXilzIb7OHP73u29ownFnx/2JduV0svGHrDtbZZ6vK7PnZRe7VWLO3dxvRhfwbfu7ixKVWJz2z1pW7lwKDlZeVzFpb5l40iNq0tb1EDm8bxOu5Gfm2+XCdG5pM1Bg9EMIPFxfb1ZIOm7O50qasKLWnPy+0f0zNd0/gvXwau33yxuPIGUPKY0snZzIgfJC/95eW2UvzS2zz4Xo3jPEE4SkJ25E477V4W5Ub3WyHwyP05LR8N7jx8K37tt7JIcbJK7MLnRRDAh6akGdNrT1ulEFcvz3b7KvUU1aUOaFGFoyxY5fa7IMlJXbkXLN7KLWlc1RqPWSi/oSP9uXlFx98VeLtijdi2qoye2pmof11Up5tOFjvCw683GfXsQY7fe2GtXXc8i2dU1ezpfP2vfNMp671eqw5l0qbErbpSIN7MKasrbAlu2ucLAbvG96IwspOW/5NtX28rNQe/6zA/jYpz/rnAxH7bGWpnb3W5roIeXtsSr5dLunwM7OcaUJ/Eg3hvLIOe/GLQl8AoW8iCx7G+VuqbO2hBntlXpFvUUOWl2YXGWQBwx29xZuCsc32vxX76nz7H4sTM1aXeb3QffJfsKXSvr/YYu8tLdWWziG1bmyBAxE+2pSFAjzPh842W9fNO7bjWIO3MYQcj++9LZ09vd5fxncWmyBjeH/xSk/6utSenFnopJ92Z+sk/YE8aWOI/v95/bLVNPSOn+sP1du7S0t9BwhbOukP6B76zk6PDd/WGgsbjMuMm4zT731VaiwenrnaatNWltm/Zxf5ItjbX5X6WPz6whLbcqTByRoklf7D/INubjzSu6WTxcBnPy/0BRPqHi6+s4AxYVW5k1TSQMz+47XLPr7jJedFYsjBIiE6y2IMRJmz48S/XtHpC52QW7ygH68st7UH672vUi/KfnBCnl0taRfhC8DrUwgIASEQIQIifBGCOVBWeBowFr/q247G2zkfmZxne/o8fJcK230VFEKEwcjkyuTOKiifJdWdxpYdzpJgZKzYW2sfLS1xsvTcF4W+DbQKw3FxsRvIpGEi5yzJ5FXlTnxmrCnzCZ6JFwOGl76wbRKi9s7iEjdKeRPbvM2Vvl0O4sdWTzx5nDncdbzRV2DZWvqbd684WbpS3OEeQbZ+ks9nayt8SxST/iMT82zfqUb3gBw+1+yElvpRJ4glN98xWJ6enu/GAUYARi6GAyvE1BevH3ixpY9V6dkbK9zrQVq2eXIWCi/o1eIOJ3y8IAYDCsJ38IcWN4bY3vr5ul5DhbbYeqTB2GaFYTRJZ/gGUtkxP8ur6HKyRFugP3hd2f7LtmXa4H/evuLne3qfl3qbEi8Qu0cmXHdDkjN809b0vjAjnLnE8ztjTbkvQLBY4vq8tcpmbqi0r/fWGm8ExXNMXujg36fkuQH714nX/W2xxy622NsLiv1cFFudMXzpF3j4IFs7jzd4P9t7ssn+8OE1fxkHRvo/p+fbD9chorddrzF4Lxe222vziuzAmWavJ/r3xYYK75Prv+slfLzYBdv53UUlvgjDAgaEjwULDH8I38r9dd4fvvuh2V6eXejyQxyOXGixaavLjQWc95ZqS+eYFXOIDALhgxjtO9vS255N3bb9aIO9v7jEGGPxZm0/0uDeO9qfcYitixOXlfpCFx5fxju2Wh74odm34rPtGJJzqajddRFyRzr0fduRBt8uyuIThK+usdsX9jirCcFnzHtzQbHtOdXkekcfeOjja8YuiKkrypx8oo/ldTddDw+ebfbFOBbkkG/hjmpzwlfZaW9A+I42OsE6/EOTvTa3yOvEPDF9fYXrIboKUZ25rtz7LHKyYMnLYzYcrveFMvosYzxzxF8+ve4LiJOWl3rfJj6eOTx0Tvj21drsDeVO8Hh5Eztb0GXmuNlbquzLvm2vjPObDtXZi18W+fgtD98QiqogISAEhMAoERDhGyVwI03GJIhB+PLcIvt0Zbmfo+AM364Tjb5V64v15U4+Fm6ttNNX236WLZPrGwuL7bX5xTZ9faW9MKvA3ltcbCcutfR629ZU+Da0p6fm+VYhtksu2Flji3fV+Fad45db3ZANhi0G8vwEwsc5Pbx8U9dW+Bk+JncM0Ylfl9kny8v81fR4ZnafaPTJ+MMlJTZ9Q6XN3lhpL80quOfhg/DVN3f75L7xYJ3nNWNDpb29oMhe+bLgZ2f4MIIxJqavLbePlpbanG01tud0s0GA2YL66Yoy+2JLtZ+PWrKrxre88QY8trmB6fn8XsKHAY28rGhj4Ow72XiP8GHEsZXwnQVFNml1hX2+qcomfl1qO/uw10tbfqZukTy4Xt7p5zfRd/61wdRV5f6ad0gVr7h/fX6xzVhb4Xr38hcF3qZ7zvRuMV76TY29vqDYjdGBCB//mmD66jJ7YvJ1m725ymZurLIJy0q876C7bA3jXNznm6vszbmFrrd4+NiqBhmcuKLMvdgQx0TCd6PjthM1DGHkfndRsf3Xm5f9bY3o29JdNb6F2XV/S5UvruSXd9jGQ/XGOSt0a9LqcvcG8Vp+vCZ4+BIJHx48dB4Sx3nV7cca7hE+Fml4SyILMG8tKrEZG6vs7cUltnR3jS+k6AxfJKo5aCaB8L06v9heXVhis7ZU+xtiOavHuMwW44Nnm/wcG1vnWcRjsYlFjEcnXrdZm6ttlut6mesRW+R56QrbgdENFgL+9PE1J4H7zzT7ItncLZXuLTx2YXDCx5ZOtkt+sbnKPeRzt1Q58eQM+HuLS+yzDZWGF5w+hq6xQ4I+gCzociLhg0iyEMIWz2dmFNiHy8psyupyP0PNwgP6h+5+tqbc3l5YbF9urbYvtlT5cQM83/S7j5eX2Rdbq+2dBcW+c6Kp9ZZN7kf4OIMH4WMB4+35RbZkT51vMX0Iwldww9sAjx6LlMw7lPPWvEIfu0mnM3yDqqkChIAQEAKjRkCEb9TQjSwh/2Cdld8TV9psy/EmO3qp1XafbvZzFryIhFfVQ+rYQlZU+fPXvPPiAM47bT7WaLtONtmxi62+YszZNVZnyQtvFs/Jo6apx7Z/39RLnorafWWYF67wQgpIFsYrrwGHJHGugrN435xqti3HGu3Uld5XYeNtQxYIGK/sRmbKw3vIyvG2E0126FyLvzGU8yLkc6Go3bc8sXqLFweZth1v8jMfnDFhayd1CRcGFp4VtrXtO9PseXLuhLSUsetUb9mHz/eeI8RQwauI15F0eDt5EQD/JBljmTNZ+39o8dVoymOLXigDEkk9tp9oslPX2rwM/vcgaSCMCWIF8VLyGfVb4DL1LZ0t7bf9pSXoLLij+7QXuoEOQMAwetG7E5dbvU3PFvS20YGzLR7ONi/04EJhu7c3WzxpL4xszmwevdBqu081287vmzwORBK9hfTtPNnk+kyfQG/oX5eL212fD/T1FfJJ7BfIBiElPLGfNrffcv2gDx+/1Or12Xu62V+aRL7o64nLbf6culK+99mam15vPDDoIdvyeOU8Mv7/7d1RaxxVGAbg//9LkvyAoCi986atVelNtfXGC8ELcdUVBCFseUe2LKWQ9pvTnW9mnoWQtMmZOef53jmZr5tN8+x15phnr5P5n3/9991vpc3X5Di5Hp989+fU7MXixet/ptdWJftdHlvKc2qUH9l8+urvKbvx/+r5YapZzLNvZn/95bf/n+n74fVxelYvDVLykq//4tlhymaeec7rz7Iv5TcIZx/Ms7V5HV/27O/fHKca53Vx+R6Q5jB5SJ5yrrzOOa/F/v3w35Sh7LXZuzKfXEfJQ/bj7MvJSvbp7Is5X36sPbm/f/rHKXvn85+O0y/9efbj8V1+kvVkP9fn1y8Op/yjYHKYayXZzfeGZPx87Ozdscn6z98T8l+uZJ3T3vvmOI3JmnNd5RrI9Zpr45uXf52+/PZwymsZc21l/nnkeLmOM8+cJy9VSFOdcRmf41xrXz5fT6PzfD6u9wQIEOggoOHrUAVz2IXA6BuKrg3fLoppkSd5FoItCYzO85ZsrIUAgfULaPjWX0MrWInA6BsKDd9KCr/RacrzRgu702WNzvNOGS2bAIGmAhq+poUxre0JjL6h0PBtLyNrWpE8r6la5vqYwOg8P3Y+nydAgMA1BTR819R2rl0LjL6h0PDtOk6LL16eFy+BCQwUGJ3ngVNzKAIECMwW0PDNJnQAAh8nMPqGQsP3ce6+6vMIyPPncXXUZQRG53mZVTgrAQIEPiyg4fuwi78lMFxg9A2Fhm94iRzwEwTk+ROwfGl7gdF5br9gEyRAYFcCGr5dldtilxQYfUOh4Vuyms4tzzKwJYHRed6SjbUQILB+AQ3f+mtoBSsRGH1DoeFbSeE3Ok153mhhd7qs0XneKaNlEyDQVEDD17QwprU9gdE3FBq+7WVkTSuS5zVVy1wfExid58fO5/MECBC4psBuG77cLGeD98bgWhlI5u7v7083NzenfDz3cdnwybMcXyvH5/PIs8yds7CF96PzPHd/N54AAQIjBXbZ8N3e3k433rn59sbgmhlI9kY3fPIsw9fM8OW55Fn2LvOw9o9H5nnkjZpjESBAYK7Arhq+h4eH093d3XTDnZtubwyWyEAymCzOfciz/C6R3/fPKc9y+H4m1vznUXmeu78bT4AAgZECu2r48mMnuUnOj254Y7BUBpLBZHHuQ55leKkMX55XnuXwMg9r/3hUnufu78YTIEBgpMCuGr6RcI5FgAABAgQIECBAgACB7gIavu4VMj8CBAgQIECAAAECBAgUBTR8RTjDCBAgQIAAAQIECBAg0F1Aw9e9QuZHgAABAgQIECBAgACBooCGrwhnGAECBAgQIECAAAECBLoLaPi6V8j8CBAgQIAAAQIECBAgUBTQ8BXhDCNAgAABAgQIECBAgEB3AQ1f9wqZHwECBAgQIECAAAECBIoCGr4inGEECBAgQIAAAQIECBDoLqDh614h8yNAgAABAgQIECBAgEBRQMNXhDOMAAECBAgQIECAAAEC3QU0fN0rZH4ECBAgQIAAAQIECBAoCmj4inCGESBAgAABAgQIECBAoLuAhq97hcyPAAECBAgQIECAAAECRQENXxHOMAIECBAgQIAAAQIECHQX0PB1r5D5ESBAgAABAgQIECBAoCig4SvCGUaAAAECBAgQIECAAIHuAhq+7hUyPwIECBAgQIAAAQIECBQFNHxFOMMIECBAgAABAgQIECDQXUDD171C5keAAAECBAgQIECAAIGigIavCGcYAQIECBAgQIAAAQIEugto+LpXyPwIECBAgAABAgQIECBQFNDwFeEMI0CAAAECBAgQIECAQHcBDV/3CpkfAQIECBAgQIAAAQIEigIaviKcYQQIECBAgAABAgQIEOguoOHrXiHzI0CAAAECBAgQIECAQFFAw1eEM4wAAQIECBAgQIAAAQLdBTR83StkfgQIECBAgAABAgQIECgKaPiKcIYRIECAAAECBAgQIECgu4CGr3uFzI8AAQIECBAgQIAAAQJFAQ1fEc4wAgQIECBAgAABAgQIdBfQ8HWvkPkRIECAAAECBAgQIECgKKDhK8IZRoAAAQIECBAgQIAAge4CGr7uFTI/AgQIECBAgAABAgQIFAU0fEU4wwgQIECAAAECBAgQINBdQMPXvULmR4AAAQIECBAgQIAAgaKAhq8IZxgBAgQIECBAgAABAgS6C2j4ulfI/AgQIECAAAECBAgQIFAU0PAV4QwjQIAAAQIECBAgQIBAdwENX/cKmR8BAgQIECBAgAABAgSKAm8BLFg4uHPhv6UAAAAASUVORK5CYII=;" vertex="1" parent="1">
          <mxGeometry x="590" y="640" width="892" height="374" as="geometry" />
        </mxCell>
      </root>
    </mxGraphModel>
  </diagram>
</mxfile>
